<svg width="30" height="30" viewBox="0 0 30 30" fill="none" xmlns="http://www.w3.org/2000/svg">
<path fill-rule="evenodd" clip-rule="evenodd" d="M23.5 30H6.50001C5.64594 30.0017 4.79994 29.8347 4.01055 29.5087C3.22116 29.1826 2.50393 28.7039 1.90001 28.1C1.29609 27.4961 0.81737 26.7788 0.491319 25.9895C0.165269 25.2001 -0.00169372 24.3541 1.2953e-05 23.5V6.50001C-0.00169372 5.64594 0.165269 4.79994 0.491319 4.01055C0.81737 3.22116 1.29609 2.50393 1.90001 1.90001C2.50393 1.29609 3.22116 0.81737 4.01055 0.491319C4.79994 0.165269 5.64594 -0.00169372 6.50001 1.2953e-05H23.5C24.3541 -0.00169372 25.2001 0.165269 25.9895 0.491319C26.7788 0.81737 27.4961 1.29609 28.1 1.90001C28.7039 2.50393 29.1826 3.22116 29.5087 4.01055C29.8347 4.79994 30.0017 5.64594 30 6.50001V23.5C30.0017 24.3541 29.8347 25.2001 29.5087 25.9895C29.1826 26.7788 28.7039 27.4961 28.1 28.1C27.4961 28.7039 26.7788 29.1826 25.9895 29.5087C25.2001 29.8347 24.3541 30.0017 23.5 30Z" fill="url(#paint0_linear_127_524)"/>
<path fill-rule="evenodd" clip-rule="evenodd" d="M22 18.125V19C21.9997 19.5616 21.9495 20.1222 21.85 20.675C21.8015 20.9567 21.6968 21.2258 21.5422 21.4663C21.3876 21.7068 21.1862 21.9138 20.95 22.075H20.925C20.4266 22.4532 19.8251 22.6711 19.2 22.7L18.725 22.75C18.3523 22.7728 17.9794 22.7078 17.6363 22.5602C17.2933 22.4125 16.9897 22.1864 16.75 21.9C16.5007 21.5979 16.3367 21.2345 16.2752 20.8477C16.2136 20.4608 16.2567 20.0645 16.4 19.7V19.675C16.531 19.3184 16.7477 18.9995 17.0311 18.7466C17.3145 18.4937 17.6559 18.3146 18.025 18.225L19.9 17.725C20.1359 17.6688 20.3458 17.5344 20.4956 17.3438C20.6454 17.1531 20.7262 16.9174 20.725 16.675V15.4V10.025C20.7268 9.96291 20.7141 9.90129 20.6881 9.84491C20.6621 9.78854 20.6234 9.73893 20.575 9.69997C20.5254 9.66329 20.4685 9.63763 20.4081 9.6247C20.3478 9.61176 20.2854 9.61186 20.225 9.62497L12.225 11.25C12.0833 11.2726 11.9545 11.3459 11.8625 11.4562C11.7706 11.5665 11.7218 11.7064 11.725 11.85V20.4V21.025C11.7247 21.5866 11.6746 22.1472 11.575 22.7C11.5265 22.9817 11.4218 23.2508 11.2672 23.4913C11.1126 23.7318 10.9112 23.9388 10.675 24.1H10.65C10.1516 24.4782 9.55008 24.6961 8.92505 24.725L8.47505 24.75C8.10229 24.7728 7.72937 24.7078 7.38633 24.5602C7.04329 24.4125 6.73971 24.1864 6.50005 23.9C6.25069 23.5979 6.08673 23.2345 6.02518 22.8477C5.96364 22.4608 6.00675 22.0645 6.15005 21.7V21.675C6.28096 21.3184 6.49771 20.9995 6.78113 20.7466C7.06455 20.4937 7.40592 20.3146 7.77505 20.225L9.65005 19.725C9.88589 19.6688 10.0958 19.5344 10.2456 19.3438C10.3954 19.1531 10.4762 18.9174 10.475 18.675V17.4V7.47498C10.4778 7.26168 10.5539 7.05583 10.6904 6.89196C10.827 6.72809 11.0158 6.61617 11.225 6.57498L21.25 4.74998C21.4343 4.72837 21.6203 4.77265 21.775 4.87498C21.8453 4.93264 21.9019 5.00514 21.9408 5.08726C21.9797 5.16939 21.9999 5.2591 22 5.34998V18.125Z" fill="#BB58BB"/>
<path fill-rule="evenodd" clip-rule="evenodd" d="M22 18.125V19C21.9997 19.5616 21.9495 20.1222 21.85 20.675C21.8015 20.9567 21.6968 21.2258 21.5422 21.4663C21.3876 21.7068 21.1862 21.9138 20.95 22.075H20.925C20.4266 22.4532 19.8251 22.6711 19.2 22.7L18.725 22.75C18.3523 22.7728 17.9794 22.7078 17.6363 22.5602C17.2933 22.4125 16.9897 22.1864 16.75 21.9C16.5007 21.5979 16.3367 21.2345 16.2752 20.8477C16.2136 20.4608 16.2567 20.0645 16.4 19.7V19.675C16.531 19.3184 16.7477 18.9995 17.0311 18.7466C17.3145 18.4937 17.6559 18.3146 18.025 18.225L19.9 17.725C20.1359 17.6688 20.3458 17.5344 20.4956 17.3438C20.6454 17.1531 20.7262 16.9174 20.725 16.675V15.4V10.025C20.7268 9.96291 20.7141 9.90129 20.6881 9.84491C20.6621 9.78854 20.6234 9.73893 20.575 9.69997C20.5254 9.66329 20.4685 9.63763 20.4081 9.6247C20.3478 9.61176 20.2854 9.61186 20.225 9.62497L12.225 11.25C12.0833 11.2726 11.9545 11.3459 11.8625 11.4562C11.7706 11.5665 11.7218 11.7064 11.725 11.85V20.4V21.025C11.7247 21.5866 11.6746 22.1472 11.575 22.7C11.5265 22.9817 11.4218 23.2508 11.2672 23.4913C11.1126 23.7318 10.9112 23.9388 10.675 24.1H10.65C10.1516 24.4782 9.55008 24.6961 8.92505 24.725L8.47505 24.75C8.10229 24.7728 7.72937 24.7078 7.38633 24.5602C7.04329 24.4125 6.73971 24.1864 6.50005 23.9C6.25069 23.5979 6.08673 23.2345 6.02518 22.8477C5.96364 22.4608 6.00675 22.0645 6.15005 21.7V21.675C6.28096 21.3184 6.49771 20.9995 6.78113 20.7466C7.06455 20.4937 7.40592 20.3146 7.77505 20.225L9.65005 19.725C9.88589 19.6688 10.0958 19.5344 10.2456 19.3438C10.3954 19.1531 10.4762 18.9174 10.475 18.675V17.4V7.47498C10.4778 7.26168 10.5539 7.05583 10.6904 6.89196C10.827 6.72809 11.0158 6.61617 11.225 6.57498L21.25 4.74998C21.4343 4.72837 21.6203 4.77265 21.775 4.87498C21.8453 4.93264 21.9019 5.00514 21.9408 5.08726C21.9797 5.16939 21.9999 5.2591 22 5.34998V18.125Z" fill="url(#paint1_radial_127_524)"/>
<path fill-rule="evenodd" clip-rule="evenodd" d="M22 18.125V19C21.9997 19.5616 21.9495 20.1222 21.85 20.675C21.8015 20.9567 21.6968 21.2258 21.5422 21.4663C21.3876 21.7068 21.1862 21.9138 20.95 22.075H20.925C20.4266 22.4532 19.8251 22.6711 19.2 22.7L18.725 22.75C18.3523 22.7728 17.9794 22.7078 17.6363 22.5602C17.2933 22.4125 16.9897 22.1864 16.75 21.9C16.5007 21.5979 16.3367 21.2345 16.2752 20.8477C16.2136 20.4608 16.2567 20.0645 16.4 19.7V19.675C16.531 19.3184 16.7477 18.9995 17.0311 18.7466C17.3145 18.4937 17.6559 18.3146 18.025 18.225L19.9 17.725C20.1359 17.6688 20.3458 17.5344 20.4956 17.3438C20.6454 17.1531 20.7262 16.9174 20.725 16.675V15.4V10.025C20.7268 9.96291 20.7141 9.90129 20.6881 9.84491C20.6621 9.78854 20.6234 9.73893 20.575 9.69997C20.5254 9.66329 20.4685 9.63763 20.4081 9.6247C20.3478 9.61176 20.2854 9.61186 20.225 9.62497L12.225 11.25C12.0833 11.2726 11.9545 11.3459 11.8625 11.4562C11.7706 11.5665 11.7218 11.7064 11.725 11.85V20.4V21.025C11.7247 21.5866 11.6746 22.1472 11.575 22.7C11.5265 22.9817 11.4218 23.2508 11.2672 23.4913C11.1126 23.7318 10.9112 23.9388 10.675 24.1H10.65C10.1516 24.4782 9.55008 24.6961 8.92505 24.725L8.47505 24.75C8.10229 24.7728 7.72937 24.7078 7.38633 24.5602C7.04329 24.4125 6.73971 24.1864 6.50005 23.9C6.25069 23.5979 6.08673 23.2345 6.02518 22.8477C5.96364 22.4608 6.00675 22.0645 6.15005 21.7V21.675C6.28096 21.3184 6.49771 20.9995 6.78113 20.7466C7.06455 20.4937 7.40592 20.3146 7.77505 20.225L9.65005 19.725C9.88589 19.6688 10.0958 19.5344 10.2456 19.3438C10.3954 19.1531 10.4762 18.9174 10.475 18.675V17.4V7.47498C10.4778 7.26168 10.5539 7.05583 10.6904 6.89196C10.827 6.72809 11.0158 6.61617 11.225 6.57498L21.25 4.74998C21.4343 4.72837 21.6203 4.77265 21.775 4.87498C21.8453 4.93264 21.9019 5.00514 21.9408 5.08726C21.9797 5.16939 21.9999 5.2591 22 5.34998V18.125Z" fill="url(#paint2_radial_127_524)"/>
<path fill-rule="evenodd" clip-rule="evenodd" d="M22 18.125V19C21.9997 19.5616 21.9495 20.1222 21.85 20.675C21.8015 20.9567 21.6968 21.2258 21.5422 21.4663C21.3876 21.7068 21.1862 21.9138 20.95 22.075H20.925C20.4266 22.4532 19.8251 22.6711 19.2 22.7L18.725 22.75C18.3523 22.7728 17.9794 22.7078 17.6363 22.5602C17.2933 22.4125 16.9897 22.1864 16.75 21.9C16.5007 21.5979 16.3367 21.2345 16.2752 20.8477C16.2136 20.4608 16.2567 20.0645 16.4 19.7V19.675C16.531 19.3184 16.7477 18.9995 17.0311 18.7466C17.3145 18.4937 17.6559 18.3146 18.025 18.225L19.9 17.725C20.1359 17.6688 20.3458 17.5344 20.4956 17.3438C20.6454 17.1531 20.7262 16.9174 20.725 16.675V15.4V10.025C20.7268 9.96291 20.7141 9.90129 20.6881 9.84491C20.6621 9.78854 20.6234 9.73893 20.575 9.69997C20.5254 9.66329 20.4685 9.63763 20.4081 9.6247C20.3478 9.61176 20.2854 9.61186 20.225 9.62497L12.225 11.25C12.0833 11.2726 11.9545 11.3459 11.8625 11.4562C11.7706 11.5665 11.7218 11.7064 11.725 11.85V20.4V21.025C11.7247 21.5866 11.6746 22.1472 11.575 22.7C11.5265 22.9817 11.4218 23.2508 11.2672 23.4913C11.1126 23.7318 10.9112 23.9388 10.675 24.1H10.65C10.1516 24.4782 9.55008 24.6961 8.92505 24.725L8.47505 24.75C8.10229 24.7728 7.72937 24.7078 7.38633 24.5602C7.04329 24.4125 6.73971 24.1864 6.50005 23.9C6.25069 23.5979 6.08673 23.2345 6.02518 22.8477C5.96364 22.4608 6.00675 22.0645 6.15005 21.7V21.675C6.28096 21.3184 6.49771 20.9995 6.78113 20.7466C7.06455 20.4937 7.40592 20.3146 7.77505 20.225L9.65005 19.725C9.88589 19.6688 10.0958 19.5344 10.2456 19.3438C10.3954 19.1531 10.4762 18.9174 10.475 18.675V17.4V7.47498C10.4778 7.26168 10.5539 7.05583 10.6904 6.89196C10.827 6.72809 11.0158 6.61617 11.225 6.57498L21.25 4.74998C21.4343 4.72837 21.6203 4.77265 21.775 4.87498C21.8453 4.93264 21.9019 5.00514 21.9408 5.08726C21.9797 5.16939 21.9999 5.2591 22 5.34998V18.125Z" fill="url(#paint3_linear_127_524)"/>
<path fill-rule="evenodd" clip-rule="evenodd" d="M22 18.125V19C21.9997 19.5616 21.9495 20.1222 21.85 20.675C21.8015 20.9567 21.6968 21.2258 21.5422 21.4663C21.3876 21.7068 21.1862 21.9138 20.95 22.075H20.925C20.4266 22.4532 19.8251 22.6711 19.2 22.7L18.725 22.75C18.3523 22.7728 17.9794 22.7078 17.6363 22.5602C17.2933 22.4125 16.9897 22.1864 16.75 21.9C16.5007 21.5979 16.3367 21.2345 16.2752 20.8477C16.2136 20.4608 16.2567 20.0645 16.4 19.7V19.675C16.531 19.3184 16.7477 18.9995 17.0311 18.7466C17.3145 18.4937 17.6559 18.3146 18.025 18.225L19.9 17.725C20.1359 17.6688 20.3458 17.5344 20.4956 17.3438C20.6454 17.1531 20.7262 16.9174 20.725 16.675V15.4V10.025C20.7268 9.96291 20.7141 9.90129 20.6881 9.84491C20.6621 9.78854 20.6234 9.73893 20.575 9.69997C20.5254 9.66329 20.4685 9.63763 20.4081 9.6247C20.3478 9.61176 20.2854 9.61186 20.225 9.62497L12.225 11.25C12.0833 11.2726 11.9545 11.3459 11.8625 11.4562C11.7706 11.5665 11.7218 11.7064 11.725 11.85V20.4V21.025C11.7247 21.5866 11.6746 22.1472 11.575 22.7C11.5265 22.9817 11.4218 23.2508 11.2672 23.4913C11.1126 23.7318 10.9112 23.9388 10.675 24.1H10.65C10.1516 24.4782 9.55008 24.6961 8.92505 24.725L8.47505 24.75C8.10229 24.7728 7.72937 24.7078 7.38633 24.5602C7.04329 24.4125 6.73971 24.1864 6.50005 23.9C6.25069 23.5979 6.08673 23.2345 6.02518 22.8477C5.96364 22.4608 6.00675 22.0645 6.15005 21.7V21.675C6.28096 21.3184 6.49771 20.9995 6.78113 20.7466C7.06455 20.4937 7.40592 20.3146 7.77505 20.225L9.65005 19.725C9.88589 19.6688 10.0958 19.5344 10.2456 19.3438C10.3954 19.1531 10.4762 18.9174 10.475 18.675V17.4V7.47498C10.4778 7.26168 10.5539 7.05583 10.6904 6.89196C10.827 6.72809 11.0158 6.61617 11.225 6.57498L21.25 4.74998C21.4343 4.72837 21.6203 4.77265 21.775 4.87498C21.8453 4.93264 21.9019 5.00514 21.9408 5.08726C21.9797 5.16939 21.9999 5.2591 22 5.34998V18.125Z" fill="#FDFCEE"/>
<defs>
<linearGradient id="paint0_linear_127_524" x1="15" y1="30" x2="15" y2="1.43051e-05" gradientUnits="userSpaceOnUse">
<stop stop-color="#FD355A"/>
<stop offset="1" stop-color="#FD5163"/>
</linearGradient>
<radialGradient id="paint1_radial_127_524" cx="0" cy="0" r="1" gradientUnits="userSpaceOnUse" gradientTransform="translate(9.40505 22.5971) rotate(90) scale(12.6533)">
<stop stop-color="#7470F9"/>
<stop offset="1" stop-color="#7A70FE" stop-opacity="0"/>
</radialGradient>
<radialGradient id="paint2_radial_127_524" cx="0" cy="0" r="1" gradientUnits="userSpaceOnUse" gradientTransform="translate(19.3878 19.709) rotate(-105.538) scale(10.2135)">
<stop stop-color="#4CA3F8"/>
<stop offset="0.362" stop-color="#4CA4F7"/>
<stop offset="1" stop-color="#4AA2F9" stop-opacity="0"/>
</radialGradient>
<linearGradient id="paint3_linear_127_524" x1="12.0755" y1="8.59597" x2="16.4818" y2="16.5952" gradientUnits="userSpaceOnUse">
<stop stop-color="#FF6380"/>
<stop offset="1" stop-color="#F65E79" stop-opacity="0"/>
</linearGradient>
</defs>
</svg>
