<svg width="34" height="30" viewBox="0 0 34 30" fill="none" xmlns="http://www.w3.org/2000/svg">
<path fill-rule="evenodd" clip-rule="evenodd" d="M0.21933 15.6568C0.527723 14.789 1.48086 14.3356 2.34821 14.6442L15.6743 19.3846C16.3966 19.6416 17.1855 19.6416 17.9078 19.3846L31.2339 14.6442C32.1012 14.3356 33.0544 14.789 33.3628 15.6568C33.6712 16.5245 33.218 17.4781 32.3507 17.7867L19.0246 22.5272C17.5799 23.0411 16.0022 23.0411 14.5575 22.5272L1.23142 17.7867C0.364065 17.4781 -0.0890636 16.5245 0.21933 15.6568Z" fill="#DBB580"/>
<path fill-rule="evenodd" clip-rule="evenodd" d="M0.21933 22.7442C0.527723 21.8764 1.48086 21.423 2.34821 21.7316L15.6743 26.472C16.3966 26.729 17.1855 26.729 17.9078 26.472L31.2339 21.7316C32.1012 21.423 33.0544 21.8764 33.3628 22.7442C33.6712 23.6119 33.218 24.5655 32.3507 24.8741L19.0246 29.6146C17.5799 30.1285 16.0022 30.1285 14.5575 29.6146L1.23142 24.8741C0.364065 24.5655 -0.0890636 23.6119 0.21933 22.7442Z" fill="#DBB580"/>
<path d="M19.6392 0.502008C17.7994 -0.167336 15.7828 -0.167337 13.943 0.502008L2.19437 4.77632C-0.731445 5.84078 -0.731467 9.98073 2.19437 11.0452L13.943 15.3195C15.7828 15.9888 17.7994 15.9889 19.6392 15.3195L31.3878 11.0452C34.3136 9.98073 34.3136 5.84079 31.3878 4.77633L19.6392 0.502008Z" fill="#DBB580"/>
</svg>
