<svg width="25" height="25" viewBox="0 0 25 25" fill="none" xmlns="http://www.w3.org/2000/svg">
<path d="M0 4.16667C0 1.86548 1.86548 0 4.16667 0H20.8333C23.1345 0 25 1.86548 25 4.16667V4.55556C25 5.10784 24.5523 5.55556 24 5.55556H1C0.447715 5.55556 0 5.10784 0 4.55556V4.16667Z" fill="#FDFCEE"/>
<path d="M13.8889 9.33333C13.8889 8.78105 13.4412 8.33333 12.8889 8.33333H1C0.447716 8.33333 0 8.78105 0 9.33333V20.8333C0 23.1345 1.86548 25 4.16667 25H12.8889C13.4412 25 13.8889 24.5523 13.8889 24V9.33333Z" fill="#FDFCEE"/>
<path d="M17.6667 25C17.1144 25 16.6667 24.5523 16.6667 24V9.33333C16.6667 8.78105 17.1144 8.33333 17.6667 8.33333H24C24.5523 8.33333 25 8.78105 25 9.33333V20.8333C25 23.1345 23.1345 25 20.8333 25H17.6667Z" fill="#FDFCEE"/>
</svg>
