<svg width="24" height="30" viewBox="0 0 24 30" fill="none" xmlns="http://www.w3.org/2000/svg">
<path fill-rule="evenodd" clip-rule="evenodd" d="M9.06688 1.06355C10.7301 -0.354516 13.1763 -0.354517 14.8395 1.06355L14.9438 1.15248C15.6565 1.76016 16.5427 2.1274 17.4762 2.20192L17.6128 2.21283C19.7911 2.38674 21.5208 4.11734 21.6947 6.2967L21.7056 6.43338C21.78 7.36728 22.1471 8.25388 22.7545 8.96695L22.8434 9.07131C24.2607 10.7353 24.2607 13.1828 22.8434 14.8468L22.7545 14.9511C22.1471 15.6642 21.78 16.5508 21.7056 17.4847L21.6947 17.6214C21.5713 19.1679 20.6644 20.4885 19.3697 21.1871V28.515C19.3697 29.5091 18.4119 30.2221 17.4602 29.9364L11.9531 28.2835L6.44606 29.9364C5.49434 30.2221 4.53651 29.5091 4.53651 28.515V21.187C3.24191 20.4884 2.3351 19.1679 2.21175 17.6214L2.20085 17.4847C2.12636 16.5508 1.7593 15.6642 1.15192 14.9511L1.06303 14.8468C-0.354343 13.1828 -0.354344 10.7353 1.06303 9.07131L1.15192 8.96695C1.7593 8.25388 2.12636 7.36729 2.20085 6.43338L2.21175 6.2967C2.38558 4.11734 4.11533 2.38674 6.29362 2.21283L6.43023 2.20192C7.36369 2.1274 8.24985 1.76016 8.96257 1.15248L9.06688 1.06355ZM12.9153 3.32261L13.0196 3.41154C14.2075 4.42433 15.6844 5.0364 17.2402 5.16061L17.3768 5.17151C18.1029 5.22949 18.6795 5.80635 18.7374 6.5328L18.7483 6.66948C18.8725 8.22599 19.4842 9.70366 20.4965 10.8921L20.5854 10.9965C21.0579 11.5511 21.0579 12.3669 20.5854 12.9216L20.4965 13.026C19.4842 14.2144 18.8725 15.6921 18.7483 17.2486L18.7374 17.3853C18.6795 18.1117 18.1029 18.6886 17.3768 18.7466L17.2402 18.7575C15.6844 18.8817 14.2075 19.4938 13.0196 20.5065L12.9153 20.5955C12.3609 21.0682 11.5455 21.0682 10.9911 20.5955L10.8868 20.5065C9.69892 19.4938 8.22198 18.8817 6.66622 18.7575L6.52961 18.7466C5.80351 18.6886 5.22693 18.1117 5.16899 17.3853L5.15809 17.2486C5.03394 15.6921 4.42217 14.2144 3.40987 13.026L3.32098 12.9216C2.84853 12.3669 2.84853 11.5511 3.32098 10.9965L3.40987 10.8921C4.42217 9.70366 5.03394 8.226 5.15809 6.66948L5.16899 6.53281C5.22693 5.80635 5.80351 5.22949 6.52961 5.17151L6.66622 5.16061C8.22197 5.0364 9.69892 4.42433 10.8868 3.41154L10.9911 3.32261C11.5455 2.84992 12.3609 2.84992 12.9153 3.32261Z" fill="#DBB580"/>
<ellipse cx="11.9531" cy="11.959" rx="4.44996" ry="4.45213" fill="#DBB580"/>
</svg>
