<svg width="33" height="27" viewBox="0 0 33 27" fill="none" xmlns="http://www.w3.org/2000/svg">
<path d="M22.3336 26.5435H2.05729C1.71355 26.5435 1.43457 26.2235 1.43457 25.8275V22.5497H2.68001V25.1115H21.7109V3.58422H19.4766V2.15222H22.3336C22.678 2.15222 22.9563 2.47299 22.9563 2.86822V25.8268C22.9563 26.2228 22.678 26.5435 22.3336 26.5435Z" fill="#FDFCEE"/>
<path fill-rule="evenodd" clip-rule="evenodd" d="M0 17.5676C0 19.7768 1.79086 21.5677 4 21.5677H14.8862C17.0953 21.5677 18.8862 19.7768 18.8862 17.5677V4C18.8862 1.79087 17.0953 0 14.8862 0H4C1.79086 0 0 1.79086 0 4V17.5676ZM3.08946 15.0644C3.08946 16.701 4.68308 17.9347 6.79681 17.9347C8.91054 17.9347 10.5048 16.701 10.5048 15.0644C10.5048 15.0093 10.5029 14.9543 10.4992 14.8996V4.93366C11.7614 5.54117 14.1289 6.32828 16.0664 4.94525L15.4895 3.48276C13.3243 5.02636 10.1892 2.97706 10.1572 2.95554C9.96656 2.8289 9.74021 2.84215 9.55998 2.99444C9.37915 3.14507 9.26905 3.41075 9.26905 3.69713V12.9027C8.60935 12.457 7.73891 12.1956 6.79681 12.1956C4.68308 12.1956 3.08946 13.4286 3.08946 15.0644Z" fill="#FDFCEE"/>
<path d="M19.5912 23.2758L23.7533 22.4433C23.9052 22.413 24.0447 22.3383 24.1543 22.2287L29.3731 17.0099C29.6795 16.7034 29.6795 16.2065 29.3731 15.9001L26.0434 12.5704C25.7369 12.264 25.24 12.264 24.9336 12.5704L19.7148 17.7892C19.6052 17.8988 19.5306 18.0383 19.5002 18.1903L18.6678 22.3523C18.5579 22.9014 19.0421 23.3856 19.5912 23.2758Z" fill="#FDFCEE"/>
<path d="M32.3103 10.7431L31.2005 9.63319C30.281 8.71374 28.7903 8.71374 27.8708 9.63319L27.0976 10.4064C26.7911 10.7129 26.7911 11.2098 27.0976 11.5163L30.4272 14.8459C30.7337 15.1524 31.2306 15.1524 31.5371 14.8459L32.3103 14.0727C33.2298 13.1532 33.2298 11.6625 32.3103 10.7431Z" fill="#FDFCEE"/>
</svg>
