<svg width="29" height="31" viewBox="0 0 29 31" fill="none" xmlns="http://www.w3.org/2000/svg">
<path d="M5.30611 17.8637C5.30611 10.8739 4.78566 6.52807 7.75227 3.57187C8.82441 2.50493 10.2973 1.47442 12.4884 1.09969C12.9152 1.02683 14.7576 0.922735 15.5799 1.08928" stroke="#FDFCEE" stroke-width="2" stroke-miterlimit="10"/>
<path d="M22.8979 17.8636C22.8979 11.1965 23.4183 6.273 20.4517 3.45211C19.3796 2.43722 17.9067 1.44835 15.7155 1.09444C15.2888 1.02678 13.4463 0.927891 12.624 1.08403" stroke="#FDFCEE" stroke-width="2" stroke-miterlimit="10"/>
<path d="M5.26967 14.9959C4.17671 14.9959 2.7975 14.7409 1.79822 15.6256C1.11122 16.2346 0.590746 17.5722 1.4443 18.6235C1.62125 18.8421 1.83465 19.0763 2.05845 19.2064C2.33429 19.3625 2.3447 19.3834 2.49042 19.4354C2.8027 19.5499 2.66738 19.5083 3.20345 19.5967C3.50531 19.6488 4.01017 19.5239 4.23917 19.4718C4.52022 19.4094 4.99383 19.0555 5.11354 18.7848C5.26968 18.4205 5.30089 18.1603 5.30089 17.7283" stroke="#FDFCEE" stroke-width="2" stroke-miterlimit="10"/>
<path d="M22.9653 14.9959C24.0583 14.9959 25.4375 14.7409 26.4368 15.6256C27.1238 16.2346 27.6442 17.5722 26.7907 18.6235C26.6137 18.8421 26.4003 19.0763 26.1765 19.2064C25.9007 19.3625 25.8903 19.3834 25.7446 19.4354C25.4323 19.5499 25.5676 19.5083 25.0315 19.5967C24.7297 19.6488 24.2248 19.5239 23.9958 19.4718C23.7148 19.4094 23.2412 19.0555 23.1215 18.7848C22.9653 18.4205 22.9341 18.1603 22.9341 17.7283" stroke="#FDFCEE" stroke-width="2" stroke-miterlimit="10"/>
<path d="M2.49586 15.048C2.04827 14.9647 1.88171 14.3454 1.80364 13.8874C1.72557 13.4137 1.85048 12.862 1.91814 12.6851C2.13153 12.0918 2.37094 11.7326 2.92262 11.4568C3.71893 11.0561 4.28624 11.1445 5.02009 11.1445" stroke="#FDFCEE" stroke-width="2" stroke-miterlimit="10"/>
<path d="M25.4637 15.048C25.9113 14.9647 26.0778 14.3454 26.1559 13.8874C26.234 13.4137 26.109 12.862 26.0414 12.6851C25.828 12.0918 25.5886 11.7326 25.0369 11.4568C24.2406 11.0561 23.6733 11.1445 22.9395 11.1445" stroke="#FDFCEE" stroke-width="2" stroke-miterlimit="10"/>
<path fill-rule="evenodd" clip-rule="evenodd" d="M19.0355 22.7456V22.7404H9.19884C9.07393 22.7404 8.94381 22.7456 8.8189 22.7508C7.60624 22.8184 6.46122 23.2088 5.59206 23.8437C4.63441 24.5464 4.09835 25.504 4.10355 26.4981V29.8238C4.10876 30.4744 4.8322 31 5.71698 31H22.5018C22.9337 31 23.3449 30.8751 23.6468 30.6513C23.9538 30.4275 24.1204 30.1257 24.1204 29.8082L24.1308 26.472C24.11 24.411 21.8356 22.7456 19.0355 22.7456Z" fill="#FDFCEE"/>
<path d="M19.4154 8.61511C19.4154 10.062 19.4155 13.3253 19.3062 14.361C19.1084 16.2294 19.0147 16.5937 18.4838 17.5878C18.1924 18.1343 17.6355 18.6027 17.115 18.9462C16.1678 19.5708 14.8823 19.6124 14.1172 19.6124" fill="#FDFCEE"/>
<path d="M8.81885 8.61511C8.81885 10.062 8.81884 13.3253 8.92814 14.361C9.12591 16.2294 9.2196 16.5937 9.75047 17.5878C10.0419 18.1343 10.5988 18.6027 11.1193 18.9462C12.0665 19.5708 13.352 19.6124 14.1171 19.6124" fill="#FDFCEE"/>
<path d="M8.81885 8.61511C19.4154 8.61511 19.4154 8.61511 19.4154 8.61511L14.1171 19.6124L8.81885 8.61511Z" fill="#FDFCEE"/>
<path d="M8.81885 20.7158L19.4102 26.826" stroke="#BDA88B" stroke-width="2" stroke-miterlimit="10"/>
<path d="M19.4102 20.7158L8.81885 26.826" stroke="#BDA88B" stroke-width="2" stroke-miterlimit="10"/>
<path d="M8.81885 20.7158V26.826" stroke="#BDA88B" stroke-width="2" stroke-miterlimit="10" stroke-linecap="round"/>
<path d="M19.4155 20.7158V26.826" stroke="#BDA88B" stroke-width="2" stroke-miterlimit="10" stroke-linecap="round"/>
<path d="M9.41748 20.5596L18.8118 25.9827" stroke="#FDFCEE" stroke-width="2" stroke-miterlimit="10"/>
<path d="M18.8118 20.5596L9.41748 25.9827" stroke="#FDFCEE" stroke-width="2" stroke-miterlimit="10"/>
<path d="M9.41748 20.5596V25.9827" stroke="#FDFCEE" stroke-width="2" stroke-miterlimit="10" stroke-linecap="round"/>
<path d="M18.8169 20.5596V25.9827" stroke="#FDFCEE" stroke-width="2" stroke-miterlimit="10" stroke-linecap="round"/>
<path d="M9.71436 20.9551V25.582L14.1174 23.2191L9.71436 20.9551Z" fill="#FDFCEE"/>
<path d="M18.8119 20.9551V25.582L14.4141 23.2191L18.8119 20.9551Z" fill="#FDFCEE"/>
</svg>
