<svg width="30" height="28" viewBox="0 0 30 28" fill="none" xmlns="http://www.w3.org/2000/svg">
<path fill-rule="evenodd" clip-rule="evenodd" d="M30 22.511C30 24.9975 27.9853 27.0132 25.5 27.0132H4.5C2.01472 27.0132 0 24.9975 0 22.511V4.5022C0 2.0157 2.01472 0 4.5 0H25.5C27.9853 0 30 2.0157 30 4.5022V22.511ZM21 3.50147C21 3.22532 20.7761 3.00147 20.5 3.00147H17C16.7239 3.00147 16.5 3.22532 16.5 3.50147V6.2533C16.5 6.52944 16.7239 6.7533 17 6.7533H20.5C20.7761 6.7533 21 6.52944 21 6.2533V3.50147ZM24 6.2533C24 6.52944 24.2239 6.7533 24.5 6.7533H26.5C26.7761 6.7533 27 6.52944 27 6.2533V4.5022C27 3.67337 26.3284 3.00147 25.5 3.00147H24.5C24.2239 3.00147 24 3.22532 24 3.50147V6.2533ZM3 6.2533C3 6.52944 3.22386 6.7533 3.5 6.7533H5.5C5.77614 6.7533 6 6.52944 6 6.2533V3.50147C6 3.22532 5.77614 3.00147 5.5 3.00147H4.5C3.67157 3.00147 3 3.67337 3 4.5022V6.2533ZM9 6.2533C9 6.52944 9.22386 6.7533 9.5 6.7533H13C13.2761 6.7533 13.5 6.52944 13.5 6.2533V3.50147C13.5 3.22532 13.2761 3.00147 13 3.00147H9.5C9.22386 3.00147 9 3.22532 9 3.50147V6.2533ZM3.5 20.2599C3.22386 20.2599 3 20.4838 3 20.7599V22.511C3 23.3398 3.67157 24.0117 4.5 24.0117H5.5C5.77614 24.0117 6 23.7879 6 23.5117V20.7599C6 20.4838 5.77614 20.2599 5.5 20.2599H3.5ZM9.5 20.2599C9.22386 20.2599 9 20.4838 9 20.7599V23.5117C9 23.7879 9.22386 24.0117 9.5 24.0117H13C13.2761 24.0117 13.5 23.7879 13.5 23.5117V20.7599C13.5 20.4838 13.2761 20.2599 13 20.2599H9.5ZM17 20.2599C16.7239 20.2599 16.5 20.4838 16.5 20.7599V23.5117C16.5 23.7879 16.7239 24.0117 17 24.0117H20.5C20.7761 24.0117 21 23.7879 21 23.5117V20.7599C21 20.4838 20.7761 20.2599 20.5 20.2599H17ZM24.5 20.2599C24.2239 20.2599 24 20.4838 24 20.7599V23.5117C24 23.7879 24.2239 24.0117 24.5 24.0117H25.5C26.3284 24.0117 27 23.3398 27 22.511V20.7599C27 20.4838 26.7761 20.2599 26.5 20.2599H24.5Z" fill="#DBB580"/>
</svg>
