<svg width="20" height="30" viewBox="0 0 20 30" fill="none" xmlns="http://www.w3.org/2000/svg">
<path fill-rule="evenodd" clip-rule="evenodd" d="M11.3353 24.9793C11.3353 22.6249 13.1552 20.7216 15.1378 19.4519C18.0496 17.5872 19.8962 14.2388 19.6297 10.5267L19.074 2.78626C18.9612 1.21634 17.6482 0 16.0662 0H3.58899C2.00698 0 0.693928 1.21634 0.581214 2.78626L0.0254797 10.5267C-0.241038 14.2388 1.6056 17.5872 4.51731 19.4519C6.49998 20.7216 8.31985 22.6249 8.31985 24.9793V24.9793C8.31985 25.7126 7.787 26.3384 7.06 26.4589L5.05655 26.7911C4.32955 26.9116 3.7967 27.5374 3.7967 28.2707V28.5C3.7967 29.3284 4.47173 30 5.30442 30H14.3508C15.1834 30 15.8585 29.3284 15.8585 28.5V28.2707C15.8585 27.5374 15.3256 26.9116 14.5986 26.7911L12.5951 26.4589C11.8681 26.3384 11.3353 25.7126 11.3353 24.9793V24.9793ZM16.2162 5.08887C16.1316 3.91178 15.152 3 13.9719 3L5.68324 3C4.50312 3 3.52353 3.91178 3.43902 5.08887V5.08887C3.34549 6.39162 4.37715 7.5 5.68324 7.5H13.9719C15.278 7.5 16.3097 6.39162 16.2162 5.08887V5.08887Z" fill="#FDFCEE"/>
</svg>
