<svg width="30" height="24" viewBox="0 0 30 24" fill="none" xmlns="http://www.w3.org/2000/svg">
<path fill-rule="evenodd" clip-rule="evenodd" d="M4.09091 0C1.83156 0 0 1.83246 0 4.09291V16.3716C0 18.2186 1.22276 19.7798 2.90255 20.2892C3.41168 21.9698 4.97213 23.1931 6.81818 23.1931C8.59939 23.1931 10.1147 22.0542 10.6763 20.4645H19.3237C19.8853 22.0542 21.4006 23.1931 23.1818 23.1931C24.9745 23.1931 26.4978 22.0395 27.0507 20.4338C28.716 20.2092 30 18.7815 30 17.0538V10.4597C30 9.86927 29.8086 9.2948 29.4545 8.82249L26.7273 5.18435C26.2122 4.49727 25.4039 4.09291 24.5455 4.09291H21.8182C21.8182 1.83246 19.9866 0 17.7273 0H4.09091ZM22.3182 6.82151C22.042 6.82151 21.8182 7.04537 21.8182 7.32151V11.7787C21.8182 12.0549 22.042 12.2787 22.3182 12.2787H26.7727C27.0489 12.2787 27.2727 12.0549 27.2727 11.7787V10.6263C27.2727 10.5181 27.2377 10.4129 27.1728 10.3263L24.6955 7.02161C24.601 6.89565 24.4528 6.82151 24.2954 6.82151H22.3182ZM8.18182 19.1002C8.18182 19.8537 7.5713 20.4645 6.81818 20.4645C6.06507 20.4645 5.45455 19.8537 5.45455 19.1002C5.45455 18.3468 6.06507 17.7359 6.81818 17.7359C7.5713 17.7359 8.18182 18.3468 8.18182 19.1002ZM23.1818 20.4645C23.9349 20.4645 24.5455 19.8537 24.5455 19.1002C24.5455 18.3468 23.9349 17.7359 23.1818 17.7359C22.4287 17.7359 21.8182 18.3468 21.8182 19.1002C21.8182 19.8537 22.4287 20.4645 23.1818 20.4645Z" fill="#FDFCEE"/>
</svg>
