<svg width="23" height="30" viewBox="0 0 23 30" fill="none" xmlns="http://www.w3.org/2000/svg">
<path fill-rule="evenodd" clip-rule="evenodd" d="M1.40625 0C2.1829 0 2.8125 0.706919 2.8125 1.57895V7.19161C2.8125 7.57994 3.1273 7.89474 3.51562 7.89474C3.90395 7.89474 4.21875 7.57994 4.21875 7.19161V1.57895C4.21875 0.706919 4.84835 0 5.625 0C6.40165 0 7.03125 0.706919 7.03125 1.57895V7.19161C7.03125 7.57994 7.34604 7.89474 7.73437 7.89474C8.12269 7.89474 8.43749 7.57994 8.43749 7.19161V1.57895C8.43749 0.706919 9.06709 0 9.84374 0C10.6204 0 11.25 0.706919 11.25 1.57895V9.47368C11.25 11.8316 10.1953 14.1723 9.14062 16.5131C8.08593 18.8538 7.03125 21.1946 7.03125 23.5524V28.4211C7.03125 29.2931 6.40165 30 5.625 30C4.84835 30 4.21875 29.2931 4.21875 28.4211V23.5524C4.21875 21.1945 3.16406 18.8538 2.10937 16.5131C1.05469 14.1723 0 11.8316 0 9.47368V1.57895C0 0.706919 0.629599 0 1.40625 0ZM21.0937 30C21.8704 30 22.5 29.2931 22.5 28.4211L22.5 1.57895C22.5 0.706919 21.8704 0 21.0937 0C17.2105 0 14.0625 3.53459 14.0625 7.89474V17.3684C14.0625 18.2404 14.6921 18.9474 15.4687 18.9474C17.7987 18.9474 19.6875 20.8362 19.6875 23.1661L19.6875 28.4211C19.6875 29.2931 20.3171 30 21.0937 30Z" fill="#FDFCEE"/>
</svg>
