<svg width="25" height="20" viewBox="0 0 25 20" fill="none" xmlns="http://www.w3.org/2000/svg">
<path d="M0.515183 1.85143C0.388823 2.06634 0.474724 2.33586 0.686678 2.46713L11.8361 9.37255C12.2391 9.62211 12.7484 9.62211 13.1514 9.37255L24.301 2.46701C24.513 2.33574 24.5989 2.06621 24.4725 1.85129C23.8211 0.743501 22.6172 0 21.2396 0H3.74817C2.37057 0 1.16655 0.743562 0.515183 1.85143Z" fill="#DBB580"/>
<path d="M24.9878 5.87974C24.9878 5.48794 24.5576 5.24836 24.2245 5.45466L14.4666 11.4982C13.2578 12.2469 11.7297 12.2469 10.5209 11.4982L0.76327 5.45483C0.430178 5.24853 0 5.4881 0 5.8799V16.25C0 18.3211 1.67811 20 3.74817 20H21.2396C23.3097 20 24.9878 18.3211 24.9878 16.25V5.87974Z" fill="#DBB580"/>
</svg>
