<svg width="41" height="47" viewBox="0 0 41 47" fill="none" xmlns="http://www.w3.org/2000/svg">
<path d="M26.3215 23.528C25.5893 27.6804 23.7548 40.1955 23.7548 40.1955C23.7151 40.4212 23.5422 40.5768 23.3645 40.5455C23.1896 40.5146 23.0809 40.3064 23.1201 40.0836C23.1201 40.0836 24.9518 27.568 25.6868 23.4161C26.405 19.3427 28.9198 7.19194 28.9198 7.19194C28.9596 6.96627 29.133 6.80778 29.3079 6.83862C29.4828 6.86946 29.5943 7.07818 29.5545 7.30385C29.5545 7.30385 27.0397 19.4547 26.3215 23.528Z" fill="#FDFCEE"/>
<path d="M27.9482 6.08696L27.8579 6.07104L21.9145 39.7779L22.0047 39.7938L27.9482 6.08696Z" fill="#FDFCEE"/>
<path d="M23.8056 38.0581C23.2414 37.9586 22.762 37.6094 22.3921 37.0846L21.9255 39.7306L23.5081 40.0096L23.8513 38.0632C23.8372 38.0607 23.8202 38.0577 23.8061 38.0553L23.8056 38.0581Z" fill="#FDFCEE"/>
<path d="M29.3016 8.39048L27.6339 7.40707L27.9668 5.35413L29.4162 6.2234C29.5726 6.30917 29.7142 6.47956 29.6817 6.63089L29.3016 8.39048Z" fill="#FDFCEE"/>
<path d="M21.9369 11.3305C21.7865 11.5909 21.505 11.7062 21.3065 11.5916L20.3316 11.0288C20.1332 10.9142 20.0937 10.6103 20.2426 10.3523L22.8161 6.0896C22.9665 5.82913 23.2495 5.71137 23.4479 5.82595L24.2095 6.26563C24.408 6.38021 24.4475 6.68416 24.2971 6.94463L21.9344 11.329L21.9369 11.3305Z" fill="#FDFCEE"/>
<path d="M16.7315 20.1988L15.1389 19.2793L20.426 10.5802L21.6217 11.2705L16.7315 20.1988Z" fill="#FDFCEE"/>
<path d="M23.9269 7.97091C23.8539 8.09742 23.6275 8.10565 23.4241 7.98821L22.3326 7.35804C22.1267 7.23917 22.0192 7.0415 22.0937 6.91251L23.2221 5.15281C23.2952 5.0263 23.5215 5.01807 23.7274 5.13694L24.6502 5.66972C24.8561 5.78859 24.9622 5.98874 24.8891 6.11525L23.9294 7.97234L23.9269 7.97091Z" fill="#FDFCEE"/>
<path d="M24.6689 8.15793L24.138 7.85143L24.6324 6.86344L25.2217 7.20039L24.6689 8.15793Z" fill="#FDFCEE"/>
<path d="M25.4887 7.58571L24.9702 7.28638L24.6222 7.88918L25.1406 8.18851L25.4887 7.58571Z" fill="#FDFCEE"/>
<path d="M21.5434 6.35341L22.0767 6.66133L22.6827 5.73779L22.0962 5.39587L21.5434 6.35341Z" fill="#FDFCEE"/>
<path d="M22.1464 5.65675L21.6279 5.35742L21.2799 5.96022L21.7984 6.25955L22.1464 5.65675Z" fill="#FDFCEE"/>
<path d="M24.7405 9.19181C24.5341 9.57211 24.2039 9.62287 23.9649 9.49817C23.7285 9.37489 23.6111 9.25748 23.9198 8.71135C24.1927 8.22724 24.4153 8.25985 24.6431 8.39801C24.8734 8.5376 24.9253 8.84871 24.7405 9.19181Z" fill="#FDFCEE"/>
<path d="M24.4568 8.86255L23.6406 8.39136L23.4444 8.73121L24.2605 9.2024L24.4568 8.86255Z" fill="#FDFCEE"/>
<path d="M23.99 10.7228C23.7837 11.1031 23.4534 11.1539 23.2145 11.0292C22.978 10.9059 22.8606 10.7885 23.1693 10.2424C23.4422 9.75825 23.6648 9.79086 23.8926 9.92902C24.123 10.0686 24.1749 10.3797 23.99 10.7228Z" fill="#FDFCEE"/>
<path d="M23.7063 10.3937L22.8901 9.92249L22.6939 10.2623L23.5101 10.7335L23.7063 10.3937Z" fill="#FDFCEE"/>
<path d="M20.1686 7.56056C19.9424 7.92941 20.0636 8.24082 20.291 8.38537C20.516 8.52849 20.6764 8.57149 20.995 8.03109C21.2778 7.5527 21.1383 7.37621 20.9047 7.24798C20.6712 7.11975 20.3733 7.22892 20.1686 7.56056Z" fill="#FDFCEE"/>
<path d="M21.4109 8.11255L20.5947 7.64136L20.3985 7.98121L21.2146 8.4524L21.4109 8.11255Z" fill="#FDFCEE"/>
<path d="M19.2194 8.97425C18.9932 9.3431 19.1129 9.657 19.3418 9.79907C19.5668 9.94219 19.7272 9.98518 20.0458 9.44478C20.3286 8.9664 20.1891 8.78991 19.9555 8.66168C19.7195 8.53201 19.4241 8.64261 19.2194 8.97425Z" fill="#FDFCEE"/>
<path d="M20.4621 9.52613L19.646 9.05493L19.4498 9.39478L20.2659 9.86598L20.4621 9.52613Z" fill="#FDFCEE"/>
<path d="M14.4635 33.1324C14.5462 32.4393 15.105 32.3881 15.105 32.3881L15.0708 31.7598C15.0708 31.7598 14.6206 31.8406 14.4036 31.5863C13.7197 30.7945 14.2031 29.3041 14.508 28.6499C14.7692 28.083 15.3504 26.9731 16.3682 26.9919C16.84 26.9997 16.8124 27.46 16.8124 27.46L17.2537 27.2914C17.2537 27.2914 17.0538 26.8585 17.2897 26.5416C18.0854 25.4729 20.0952 24.5296 19.775 21.8244C19.6366 20.6663 19.0066 19.34 16.9179 18.1341C14.6704 16.8365 12.8276 16.8145 11.7033 17.5645C9.59127 18.9712 10.0905 20.6387 9.46704 21.8961C9.19098 22.4545 8.70737 22.387 8.70737 22.387L8.71411 22.7878C8.71411 22.7878 9.40137 22.8406 9.53639 23.1567C9.99591 24.2455 8.97172 25.3378 8.50661 25.9027C8.15082 26.3357 7.09612 27.0167 6.53817 26.9691C6.16029 26.9361 5.95262 26.4193 5.95262 26.4193L5.35172 26.681C5.35172 26.681 5.62566 27.0773 5.17289 27.5865C4.52623 28.3113 3.55718 28.2711 2.4734 30.3774C1.91251 31.4692 1.4115 34.5139 5.93386 37.0158C10.4151 39.4972 12.1653 38.1328 13.3482 36.5766C14.6687 34.8451 14.3488 34.0816 14.4621 33.1349L14.4635 33.1324ZM3.69941 34.3895C2.65257 33.7851 2.44156 31.4637 3.03306 30.4392C3.62457 29.4147 4.11828 29.2069 4.99395 29.7125C6.04078 30.3169 6.71429 31.8601 6.23872 32.9416C5.63002 34.3167 4.74376 34.9924 3.69941 34.3895ZM10.4541 26.4252C10.3202 26.3478 10.274 26.1757 10.3514 26.0417C10.423 25.9177 10.5735 25.869 10.7036 25.9242C10.6556 25.87 10.5911 25.8328 10.51 25.8356C10.3032 25.8386 10.1471 26.0461 10.0611 26.1321C9.77773 26.4051 9.433 27.1454 9.21904 27.4816C9.02618 27.787 8.60172 28.4019 8.3126 28.622C8.01422 28.8466 7.59393 28.9215 7.2618 28.7463C6.93712 28.5753 6.98454 28.2984 7.00193 28.2225C7.00462 28.1777 7.01618 28.1348 7.03909 28.0951C7.11643 27.9611 7.2886 27.915 7.42255 27.9923C7.55651 28.0697 7.60264 28.2419 7.5253 28.3758C7.44796 28.5098 7.2758 28.5559 7.14184 28.4786C7.12448 28.4685 7.10463 28.4571 7.09013 28.4421C7.13419 28.5204 7.20421 28.5939 7.31137 28.626C7.68961 28.7386 7.8983 28.4688 8.0452 28.3518C8.29729 28.1501 8.61125 27.5375 8.79084 27.2609C9.00909 26.9172 9.49221 26.1377 9.82828 25.9051C10.009 25.7812 10.3398 25.6149 10.6068 25.7195C10.9367 25.8471 10.9043 26.1095 10.8761 26.2156C10.8713 26.2526 10.8601 26.2891 10.8401 26.3238C10.7627 26.4578 10.5906 26.5039 10.4566 26.4266L10.4541 26.4252ZM13.2457 31.8273C13.1911 31.8818 12.9736 32.0638 12.6647 31.8656C12.3469 31.6656 12.2016 31.2642 12.2469 30.8935C12.2919 30.5291 12.6132 29.858 12.7788 29.5368C12.963 29.1834 13.4317 28.5147 13.5265 28.1329C13.5555 28.014 13.6571 27.775 13.5588 27.5958C13.5207 27.5242 13.4548 27.4895 13.3852 27.4725C13.4957 27.5561 13.5312 27.7122 13.4596 27.8363C13.3823 27.9702 13.2101 28.0163 13.0762 27.939C12.9422 27.8617 12.8961 27.6895 12.9734 27.5555C12.9935 27.5208 13.0195 27.4929 13.0491 27.4703C13.1269 27.3928 13.338 27.2335 13.6109 27.4539C13.835 27.6329 13.855 28.005 13.8395 28.2209C13.8061 28.6283 13.374 29.434 13.1866 29.7987C13.0343 30.0912 12.6608 30.6693 12.6146 30.99C12.5867 31.1756 12.4574 31.4913 12.744 31.7626C12.8229 31.8379 12.923 31.8593 13.0139 31.8622C12.9937 31.8571 12.9763 31.8471 12.9565 31.8356C12.8225 31.7583 12.7764 31.5861 12.8537 31.4522C12.9311 31.3182 13.1032 31.2721 13.2372 31.3494C13.3712 31.4268 13.4173 31.5989 13.34 31.7329C13.317 31.7726 13.2856 31.8041 13.2482 31.8288L13.2457 31.8273Z" fill="#FDFCEE"/>
<path d="M7.89194 35.3542C7.89194 35.3542 6.10215 38.1907 5.26026 37.6781C4.48392 37.2068 5.95703 34.2371 5.95703 34.2371L7.88946 35.3527L7.89194 35.3542Z" fill="#FDFCEE"/>
</svg>
