<svg width="20" height="20" viewBox="0 0 20 20" fill="none" xmlns="http://www.w3.org/2000/svg">
<path d="M7.46585 0H2C0.895431 0 0 0.895431 0 2V7.46586C0 8.57042 0.895431 9.46585 2 9.46585H7.46586C8.57042 9.46585 9.46585 8.57042 9.46585 7.46585V2C9.46585 0.895431 8.57042 0 7.46585 0Z" fill="#DBB580"/>
<path d="M18 0H12.5342C11.4296 0 10.5342 0.895431 10.5342 2V7.46585C10.5342 8.57042 11.4296 9.46585 12.5342 9.46585H18C19.1046 9.46585 20 8.57042 20 7.46585V2C20 0.895431 19.1046 0 18 0Z" fill="#DBB580"/>
<path d="M18 10.5342H12.5342C11.4296 10.5342 10.5342 11.4296 10.5342 12.5342V18C10.5342 19.1046 11.4296 20 12.5342 20H18C19.1046 20 20 19.1046 20 18V12.5342C20 11.4296 19.1046 10.5342 18 10.5342Z" fill="#DBB580"/>
<path d="M7.46585 10.5342H2C0.895431 10.5342 0 11.4296 0 12.5342V18C0 19.1046 0.895431 20 2 20H7.46586C8.57042 20 9.46585 19.1046 9.46585 18V12.5342C9.46585 11.4296 8.57042 10.5342 7.46585 10.5342Z" fill="#DBB580"/>
</svg>
