<svg width="19" height="20" viewBox="0 0 19 20" fill="none" xmlns="http://www.w3.org/2000/svg">
<path fill-rule="evenodd" clip-rule="evenodd" d="M3.79292 4.93297V6.35601H2.37058C1.06134 6.35601 0 7.41787 0 8.72774V18.5743C0 19.7675 1.37958 20.4309 2.31088 19.6855L4.61128 17.8443C4.69535 17.777 4.7998 17.7403 4.90746 17.7403H12.8011C14.1103 17.7403 15.1717 16.6785 15.1717 15.3686V13.9456H16.594C17.9033 13.9456 18.9646 12.8837 18.9646 11.5738V1.42543C18.9646 0.288858 17.6985 -0.389067 16.7533 0.241392L13.3947 2.48157C13.3168 2.53351 13.2253 2.56123 13.1317 2.56123H6.1635C4.85426 2.56123 3.79292 3.62309 3.79292 4.93297ZM12.8011 6.35601H5.68938V4.93297C5.68938 4.67099 5.90165 4.45862 6.1635 4.45862H13.1317C13.5997 4.45862 14.0572 4.32002 14.4466 4.06029L17.0681 2.31176V11.5738C17.0681 11.8358 16.8559 12.0482 16.594 12.0482H15.1717V8.72774C15.1717 7.41787 14.1103 6.35601 12.8011 6.35601ZM4.74115 11.0995C4.21746 11.0995 3.79292 11.5242 3.79292 12.0482C3.79292 12.5721 4.21746 12.9969 4.74115 12.9969H10.4305C10.9542 12.9969 11.3788 12.5721 11.3788 12.0482C11.3788 11.5242 10.9542 11.0995 10.4305 11.0995H4.74115Z" fill="white" fill-opacity="0.25"/>
</svg>
