<svg width="93" height="22" viewBox="0 0 93 22" fill="none" xmlns="http://www.w3.org/2000/svg">
<path d="M0.92 21.096C0.728 21.096 0.589333 21.0213 0.504 20.872C0.418667 20.7227 0.376 20.5627 0.376 20.392C0.397333 20.0293 0.482667 19.8267 0.632 19.784C0.781333 19.7413 0.962667 19.72 1.176 19.72C1.85867 19.72 2.33867 19.6027 2.616 19.368C2.89333 19.112 3.064 18.8027 3.128 18.44C3.21333 18.056 3.256 17.6613 3.256 17.256V4.552C3.256 4.14667 3.21333 3.76267 3.128 3.4C3.064 3.016 2.89333 2.70667 2.616 2.472C2.33867 2.216 1.85867 2.088 1.176 2.088C0.962667 2.088 0.781333 2.06667 0.632 2.024C0.482667 1.98133 0.397333 1.77867 0.376 1.416C0.376 1.24533 0.418667 1.08533 0.504 0.935999C0.589333 0.786666 0.728 0.712 0.92 0.712C1.60267 0.733333 2.24267 0.754666 2.84 0.775999C3.45867 0.797332 4.088 0.807999 4.728 0.807999H13.976C14.2107 0.807999 14.4027 0.861332 14.552 0.967999C14.7227 1.07467 14.808 1.27733 14.808 1.576L14.904 6.056C14.904 6.26933 14.7973 6.42933 14.584 6.536C14.392 6.64267 14.2107 6.696 14.04 6.696C13.8053 6.696 13.5813 6.65333 13.368 6.568C13.176 6.46133 13.0587 6.312 13.016 6.12C12.888 5.16 12.7173 4.392 12.504 3.816C12.312 3.21867 12.0133 2.792 11.608 2.536C11.224 2.25867 10.6587 2.10933 9.912 2.088H6.424V10.408H12.152C12.3227 10.4293 12.4507 10.5147 12.536 10.664C12.6213 10.8133 12.664 10.9733 12.664 11.144C12.664 11.2933 12.6213 11.4427 12.536 11.592C12.4507 11.72 12.3227 11.784 12.152 11.784H6.424V17.256C6.44533 17.6613 6.488 18.056 6.552 18.44C6.616 18.8027 6.78667 19.112 7.064 19.368C7.36267 19.6027 7.84267 19.72 8.504 19.72C8.71733 19.72 8.89867 19.7413 9.048 19.784C9.19733 19.8267 9.28267 20.0293 9.304 20.392C9.304 20.5627 9.26133 20.7227 9.176 20.872C9.09067 21.0213 8.94133 21.096 8.728 21.096C7.36267 21.032 6.04 21 4.76 21C4.12 21 3.49067 21 2.872 21C2.25333 21.0213 1.60267 21.0533 0.92 21.096ZM23.2993 21.384C21.8059 21.384 20.4939 21.032 19.3633 20.328C18.2539 19.624 17.3899 18.7067 16.7713 17.576C16.1526 16.4453 15.8433 15.24 15.8433 13.96C15.8433 12.7013 16.0673 11.5813 16.5153 10.6C16.9633 9.61867 17.5499 8.79733 18.2753 8.136C19.0219 7.47467 19.8326 6.97333 20.7073 6.632C21.5819 6.29067 22.4459 6.12 23.2993 6.12C24.7926 6.12 26.0939 6.472 27.2033 7.176C28.3339 7.88 29.2086 8.79733 29.8273 9.928C30.4459 11.0587 30.7553 12.264 30.7553 13.544C30.7553 14.8027 30.5206 15.9227 30.0513 16.904C29.6033 17.8853 29.0059 18.7067 28.2593 19.368C27.5339 20.0293 26.7339 20.5307 25.8593 20.872C24.9846 21.2133 24.1313 21.384 23.2993 21.384ZM23.2993 20.2C24.3446 20.2 25.1659 19.8907 25.7633 19.272C26.3819 18.6533 26.8193 17.8427 27.0753 16.84C27.3526 15.816 27.4913 14.7173 27.4913 13.544C27.4913 12.4133 27.3526 11.3787 27.0753 10.44C26.7979 9.50133 26.3499 8.744 25.7313 8.168C25.1126 7.592 24.3019 7.304 23.2993 7.304C22.2539 7.304 21.4219 7.61333 20.8033 8.232C20.1846 8.82933 19.7473 9.62933 19.4913 10.632C19.2353 11.6133 19.1073 12.7013 19.1073 13.896C19.1073 15.0053 19.2353 16.04 19.4913 17C19.7686 17.96 20.2166 18.7387 20.8353 19.336C21.4539 19.912 22.2753 20.2 23.2993 20.2ZM33.443 21.096C33.2937 21.096 33.1657 21.032 33.059 20.904C32.9737 20.7547 32.931 20.6053 32.931 20.456C32.9737 20.136 33.059 19.9653 33.187 19.944C33.315 19.9013 33.4857 19.88 33.699 19.88C34.2963 19.88 34.7017 19.784 34.915 19.592C35.1283 19.3787 35.2457 19.1013 35.267 18.76C35.3097 18.4187 35.331 18.0667 35.331 17.704V10.376C35.331 9.992 35.3097 9.64 35.267 9.32C35.2457 8.97867 35.1283 8.712 34.915 8.52C34.7017 8.30667 34.2963 8.2 33.699 8.2C33.507 8.2 33.3257 8.17867 33.155 8.136C33.0057 8.072 32.931 7.88 32.931 7.56C32.931 7.24 33.1017 7.048 33.443 6.984C34.4243 6.83467 35.171 6.68533 35.683 6.536C36.2163 6.38667 36.611 6.25867 36.867 6.152C37.1443 6.04533 37.3897 5.98133 37.603 5.96C37.7737 5.93867 37.9123 5.97067 38.019 6.056C38.147 6.14133 38.211 6.312 38.211 6.568V8.552H38.307C39.0323 7.848 39.779 7.272 40.547 6.824C41.315 6.35467 42.019 6.12 42.659 6.12C43.4057 6.12 43.971 6.39733 44.355 6.952C44.7603 7.50667 44.963 8.09333 44.963 8.712C44.963 9.24533 44.7923 9.768 44.451 10.28C44.1097 10.7707 43.5977 11.016 42.915 11.016C42.5737 11.016 42.2963 10.952 42.083 10.824C41.891 10.6747 41.7843 10.568 41.763 10.504C41.763 10.4613 41.859 10.3333 42.051 10.12C42.2643 9.90667 42.371 9.64 42.371 9.32C42.371 8.936 42.2643 8.62667 42.051 8.392C41.859 8.15733 41.5923 8.04 41.251 8.04C40.8883 8.04 40.419 8.22133 39.843 8.584C39.2883 8.94667 38.755 9.384 38.243 9.896V17.704C38.243 18.0667 38.2537 18.4187 38.275 18.76C38.3177 19.1013 38.4457 19.3787 38.659 19.592C38.8937 19.784 39.3097 19.88 39.907 19.88C40.099 19.88 40.259 19.9013 40.387 19.944C40.5363 19.9653 40.6217 20.136 40.643 20.456C40.643 20.6053 40.6003 20.7547 40.515 20.904C40.4297 21.032 40.3017 21.096 40.131 21.096C39.5123 21.0533 38.9363 21.0213 38.403 21C37.891 21 37.347 21 36.771 21C36.195 21 35.651 21 35.139 21C34.627 21.0213 34.0617 21.0533 33.443 21.096ZM53.1488 21.384C51.6981 21.384 50.5461 20.9467 49.6927 20.072C48.8394 19.1973 48.4128 18.0453 48.4128 16.616V10.696C48.4128 10.312 48.3914 9.96 48.3488 9.64C48.3274 9.29867 48.2101 9.032 47.9968 8.84C47.7834 8.62667 47.3781 8.52 46.7808 8.52C46.5888 8.52 46.4074 8.49867 46.2368 8.456C46.0874 8.392 46.0128 8.2 46.0128 7.88C46.0128 7.56 46.1834 7.368 46.5247 7.304C47.5061 7.15467 48.2528 7.00533 48.7648 6.856C49.2981 6.70667 49.7034 6.57867 49.9808 6.472C50.2581 6.36533 50.5034 6.30133 50.7168 6.28C50.8874 6.25867 51.0261 6.29067 51.1328 6.376C51.2608 6.46133 51.3248 6.632 51.3248 6.888V16.584C51.3248 17.288 51.4741 17.864 51.7728 18.312C52.0928 18.76 52.4874 19.0907 52.9568 19.304C53.4261 19.5173 53.9061 19.624 54.3968 19.624C55.1434 19.624 55.7941 19.496 56.3488 19.24C56.9034 18.9627 57.3514 18.6533 57.6928 18.312C58.0341 17.9493 58.2581 17.6507 58.3648 17.416V10.696C58.3648 10.312 58.3434 9.96 58.3008 9.64C58.2794 9.29867 58.1621 9.032 57.9488 8.84C57.7354 8.62667 57.3301 8.52 56.7328 8.52C56.5408 8.52 56.3594 8.49867 56.1888 8.456C56.0394 8.392 55.9648 8.2 55.9648 7.88C55.9648 7.56 56.1354 7.368 56.4768 7.304C57.4581 7.15467 58.2048 7.00533 58.7168 6.856C59.2501 6.70667 59.6554 6.57867 59.9328 6.472C60.2101 6.36533 60.4554 6.30133 60.6688 6.28C60.8394 6.25867 60.9781 6.29067 61.0848 6.376C61.2128 6.46133 61.2768 6.632 61.2768 6.888V17.96C61.2768 19.2187 62.1194 19.848 63.8048 19.848C64.0394 19.848 64.1888 19.912 64.2528 20.04C64.3168 20.168 64.3488 20.3067 64.3488 20.456C64.3488 20.7547 64.1674 20.936 63.8048 21L58.6528 21.352C58.5034 21.352 58.4181 21.288 58.3968 21.16C58.3754 21.032 58.3648 20.8827 58.3648 20.712V18.92H58.3008C57.8954 19.304 57.4581 19.688 56.9888 20.072C56.5408 20.456 56.0074 20.7653 55.3888 21C54.7914 21.256 54.0448 21.384 53.1488 21.384ZM66.1313 21.096C65.9819 21.096 65.8539 21.032 65.7473 20.904C65.6619 20.7547 65.6193 20.6053 65.6193 20.456C65.6406 20.136 65.7153 19.9653 65.8433 19.944C65.9926 19.9013 66.1633 19.88 66.3553 19.88C66.9526 19.88 67.3579 19.784 67.5713 19.592C67.8059 19.3787 67.9339 19.1013 67.9553 18.76C67.9979 18.4187 68.0193 18.0667 68.0193 17.704V10.376C68.0193 9.992 67.9979 9.64 67.9553 9.32C67.9339 8.97867 67.8166 8.712 67.6033 8.52C67.3899 8.30667 66.9846 8.2 66.3873 8.2C66.1953 8.2 66.0139 8.17867 65.8433 8.136C65.6939 8.072 65.6193 7.88 65.6193 7.56C65.6193 7.24 65.7899 7.048 66.1313 6.984C67.1126 6.83467 67.8593 6.68533 68.3713 6.536C68.9046 6.38667 69.2993 6.25867 69.5553 6.152C69.8326 6.04533 70.0779 5.98133 70.2913 5.96C70.4619 5.93867 70.6006 5.97067 70.7073 6.056C70.8353 6.14133 70.8993 6.312 70.8993 6.568V8.584H70.9953C71.4219 8.17867 71.8379 7.79467 72.2433 7.432C72.6486 7.048 73.1393 6.73867 73.7153 6.504C74.2913 6.248 75.0273 6.12 75.9233 6.12C76.9686 6.12 77.8646 6.344 78.6113 6.792C79.3579 7.21867 79.9019 7.816 80.2433 8.584H80.3073C80.7339 8.17867 81.1819 7.79467 81.6513 7.432C82.1206 7.048 82.6753 6.73867 83.3153 6.504C83.9553 6.248 84.7233 6.12 85.6193 6.12C87.0699 6.12 88.2219 6.55733 89.0753 7.432C89.9286 8.30667 90.3553 9.45867 90.3553 10.888V17.704C90.3553 18.0667 90.3659 18.4187 90.3873 18.76C90.4299 19.1013 90.5579 19.3787 90.7713 19.592C91.0059 19.784 91.4219 19.88 92.0193 19.88C92.2113 19.88 92.3713 19.9013 92.4993 19.944C92.6486 19.9653 92.7339 20.136 92.7553 20.456C92.7553 20.6053 92.7126 20.7547 92.6273 20.904C92.5419 21.032 92.4139 21.096 92.2433 21.096C91.6246 21.0533 91.0486 21.0213 90.5153 21C90.0033 21 89.4593 21 88.8833 21C88.3073 21 87.7633 21 87.2513 21C86.7393 21.0213 86.1739 21.0533 85.5553 21.096C85.3846 21.096 85.2566 21.032 85.1713 20.904C85.0859 20.7547 85.0433 20.6053 85.0433 20.456C85.0646 20.136 85.1393 19.9653 85.2673 19.944C85.4166 19.9013 85.5873 19.88 85.7793 19.88C86.3766 19.88 86.7819 19.784 86.9953 19.592C87.2299 19.3787 87.3579 19.1013 87.3793 18.76C87.4219 18.4187 87.4433 18.0667 87.4433 17.704V10.92C87.4433 10.216 87.2833 9.64 86.9633 9.192C86.6646 8.744 86.2806 8.41333 85.8113 8.2C85.3419 7.98667 84.8619 7.88 84.3713 7.88C83.6459 7.88 83.0273 8.01867 82.5153 8.296C82.0033 8.552 81.5979 8.85067 81.2993 9.192C81.0006 9.53333 80.7873 9.832 80.6593 10.088V17.704C80.6593 18.0667 80.6593 18.4187 80.6593 18.76C80.6806 19.1013 80.7872 19.3787 80.9792 19.592C81.1926 19.784 81.5979 19.88 82.1953 19.88C82.4086 19.88 82.5793 19.9013 82.7073 19.944C82.8353 19.9653 82.9099 20.136 82.9313 20.456C82.9313 20.6053 82.8886 20.7547 82.8033 20.904C82.7179 21.032 82.5899 21.096 82.4193 21.096C81.8006 21.0533 81.2459 21.0213 80.7553 21C80.2646 21 79.7313 21 79.1553 21C78.6006 21 78.0779 21 77.5873 21C77.1179 21.0213 76.5739 21.0533 75.9553 21.096C75.7846 21.096 75.6566 21.032 75.5713 20.904C75.4859 20.7547 75.4433 20.6053 75.4433 20.456C75.4646 20.136 75.5393 19.9653 75.6673 19.944C75.7953 19.9013 75.9659 19.88 76.1793 19.88C76.7766 19.88 77.1713 19.784 77.3633 19.592C77.5766 19.3787 77.6833 19.1013 77.6833 18.76C77.7046 18.4187 77.7153 18.0667 77.7153 17.704V10.92C77.7153 9.85333 77.3953 9.08533 76.7553 8.616C76.1153 8.12533 75.4219 7.88 74.6753 7.88C73.9286 7.88 73.2993 8.01867 72.7873 8.296C72.2753 8.552 71.8699 8.85067 71.5713 9.192C71.2726 9.53333 71.0593 9.832 70.9313 10.088V17.704C70.9313 18.0667 70.9419 18.4187 70.9633 18.76C71.0059 19.1013 71.1339 19.3787 71.3473 19.592C71.5819 19.784 71.9979 19.88 72.5953 19.88C72.7873 19.88 72.9473 19.9013 73.0753 19.944C73.2246 19.9653 73.3099 20.136 73.3313 20.456C73.3313 20.6053 73.2886 20.7547 73.2033 20.904C73.1179 21.032 72.9899 21.096 72.8193 21.096C72.2006 21.0533 71.6246 21.0213 71.0913 21C70.5793 21 70.0353 21 69.4593 21C68.8833 21 68.3393 21 67.8273 21C67.3153 21.0213 66.7499 21.0533 66.1313 21.096Z" fill="#E4CE9E"/>
</svg>
