<svg width="28" height="30" viewBox="0 0 28 30" fill="none" xmlns="http://www.w3.org/2000/svg">
<path fill-rule="evenodd" clip-rule="evenodd" d="M27.6834 25.5117L26.2451 15.0667C25.7193 11.081 22.6409 8.13286 19.0235 8.15072H14.2141C14.0202 5.65988 12.1516 3.74542 9.90655 3.73749H9.00759C8.28769 3.73749 7.7041 3.08758 7.7041 2.28587C7.7041 1.48417 8.28769 0.83426 9.00759 0.83426H20.3944C20.6013 0.83426 20.769 0.647505 20.769 0.41713C20.769 0.186756 20.6013 0 20.3944 0H9.0001C8.26676 0 7.58914 0.435685 7.22247 1.14294C6.85581 1.85019 6.85581 2.72156 7.22247 3.42881C7.58914 4.13606 8.26676 4.57175 9.0001 4.57175H9.90655C11.7378 4.57807 13.2697 6.12208 13.4574 8.15072H8.70044C5.08298 8.13286 2.00462 11.081 1.47881 15.0667L0.0404814 25.5117C-0.207169 27.3007 0.701363 29.0391 2.22045 29.683C3.73162 30.4039 5.48963 29.8385 6.42308 28.3315L6.79016 27.7642C8.42927 25.2338 11.0603 23.7347 13.862 23.7347C16.6636 23.7347 19.2946 25.2338 20.9338 27.7642L21.3083 28.3315C21.9456 29.3673 22.9976 29.9905 24.1251 30C24.5982 29.9976 25.0663 29.8928 25.5035 29.6913C27.0257 29.0468 27.9349 27.3035 27.6834 25.5117ZM10.7905 16.0845H9.02257V14.1156C9.02257 13.8852 8.85487 13.6985 8.648 13.6985C8.44281 13.7029 8.27742 13.8871 8.27344 14.1156V16.0845H6.51298C6.30611 16.0845 6.13841 16.2712 6.13841 16.5016C6.13841 16.732 6.30611 16.9187 6.51298 16.9187H8.27344V18.8792C8.27344 19.1096 8.44114 19.2964 8.648 19.2964C8.85487 19.2964 9.02257 19.1096 9.02257 18.8792V16.9187H10.7905C10.9974 16.9187 11.1651 16.732 11.1651 16.5016C11.1651 16.2712 10.9974 16.0845 10.7905 16.0845ZM17.4353 16.4933C17.4353 15.217 18.3644 14.1824 19.5104 14.1824C20.6565 14.1824 21.5855 15.217 21.5855 16.4933C21.5855 17.7696 20.6565 18.8042 19.5104 18.8042C18.3644 18.8042 17.4353 17.7696 17.4353 16.4933Z" fill="#FDFCEE"/>
</svg>
