<svg width="25" height="32" viewBox="0 0 25 32" fill="none" xmlns="http://www.w3.org/2000/svg">
<path d="M14.084 28.6729H4.71833C4.58117 28.6729 4.44963 28.6184 4.35264 28.5214C4.25566 28.4244 4.20117 28.2929 4.20117 28.1557C4.20117 28.0185 4.25566 27.887 4.35264 27.79C4.44963 27.693 4.58117 27.6385 4.71833 27.6385H14.084C14.2211 27.6385 14.3527 27.693 14.4497 27.79C14.5467 27.887 14.6011 28.0185 14.6011 28.1557C14.6011 28.2929 14.5467 28.4244 14.4497 28.5214C14.3527 28.6184 14.2211 28.6729 14.084 28.6729Z" fill="#FDFCEE" stroke="#FDFCEE"/>
<path d="M4.54254 28.7194C4.40539 28.7194 4.27385 28.6649 4.17686 28.5679C4.07988 28.4709 4.02539 28.3394 4.02539 28.2022C4.41843 17.3472 9.58997 10.5828 11.1828 8.7624C13.7272 5.86634 19.6952 2.23591 23.7341 1.14472C23.8647 1.11429 24.002 1.13578 24.1171 1.20464C24.2321 1.27351 24.3159 1.38437 24.3508 1.51384C24.3857 1.64331 24.369 1.78127 24.3041 1.89862C24.2392 2.01596 24.1313 2.10352 24.0031 2.14282C20.1244 3.17713 14.3892 6.6731 11.9637 9.45021C10.4122 11.1982 5.41654 17.7247 5.05453 28.2229C5.04922 28.3556 4.99311 28.4811 4.8978 28.5735C4.80249 28.6659 4.6753 28.7182 4.54254 28.7194Z" fill="#FDFCEE" stroke="#FDFCEE"/>
<path d="M11.2034 5.95421C11.0891 5.95385 10.9782 5.91566 10.8879 5.8456C10.7798 5.76178 10.7093 5.63852 10.6918 5.50282C10.6744 5.36712 10.7114 5.23004 10.7948 5.12159C12.5014 2.89782 16.1629 0.399969 23.915 1.12916C24.0522 1.14219 24.1786 1.20917 24.2663 1.31537C24.3541 1.42157 24.3961 1.55828 24.3831 1.69544C24.37 1.8326 24.3031 1.95896 24.1969 2.04673C24.0907 2.13451 23.9539 2.17649 23.8168 2.16347C16.5404 1.48082 13.1634 3.71493 11.6171 5.78355C11.5653 5.84116 11.5013 5.88641 11.4297 5.91595C11.3581 5.94549 11.2807 5.95856 11.2034 5.95421ZM3.80291 20.45C3.71953 20.4499 3.63742 20.4296 3.56358 20.3909C3.48975 20.3522 3.42636 20.2962 3.37884 20.2277C1.04647 16.8972 2.04975 14.539 3.01683 12.2376L3.07889 12.0928C3.11156 12.0156 3.16253 11.9475 3.2274 11.8943C3.29227 11.8411 3.36909 11.8046 3.45124 11.7877C3.5339 11.7704 3.61954 11.7736 3.70068 11.7971C3.78181 11.8205 3.85597 11.8635 3.91668 11.9222L5.04925 13.0289C5.45263 11.1258 6.48694 6.91094 8.24009 5.05436C8.32547 4.9644 8.44033 4.90812 8.56374 4.89578C8.68715 4.88343 8.81089 4.91586 8.91239 4.98713C9.1658 5.16296 10.4639 6.10418 10.6138 7.05575C10.624 7.12298 10.6209 7.19156 10.6045 7.25758C10.5882 7.32359 10.5591 7.38575 10.5187 7.44049C10.4784 7.49524 10.4277 7.5415 10.3694 7.57664C10.3112 7.61178 10.2467 7.63511 10.1794 7.6453C10.1122 7.65549 10.0436 7.65233 9.97759 7.63601C9.91157 7.6197 9.84942 7.59054 9.79467 7.5502C9.73993 7.50986 9.69366 7.45913 9.65852 7.40091C9.62338 7.3427 9.60005 7.27813 9.58986 7.21089C9.39162 6.76829 9.07928 6.38635 8.68484 6.10418C6.84894 8.51412 5.89221 14.0787 5.88187 14.1408C5.86593 14.2334 5.82504 14.32 5.76358 14.3911C5.70213 14.4623 5.62245 14.5153 5.5331 14.5446C5.44375 14.5738 5.34812 14.5782 5.25649 14.5571C5.16486 14.5361 5.08069 14.4905 5.01305 14.4252L3.7305 13.1789C2.88237 15.2475 2.37556 16.9903 4.21663 19.6174C4.25631 19.673 4.28459 19.7359 4.29984 19.8025C4.31508 19.8691 4.31699 19.938 4.30545 20.0053C4.29391 20.0726 4.26915 20.137 4.23261 20.1947C4.19606 20.2524 4.14844 20.3022 4.09251 20.3414C4.00932 20.4063 3.90826 20.4442 3.80291 20.45Z" fill="#FDFCEE" stroke="#FDFCEE"/>
<path d="M14.203 16.9335H14.1305L11.5448 16.5714C11.4369 16.5556 11.3368 16.506 11.2588 16.4299C11.1808 16.3537 11.1288 16.2548 11.1104 16.1474C11.0924 16.0401 11.1087 15.9299 11.157 15.8324C11.2052 15.7349 11.283 15.6551 11.3793 15.6044C11.4051 15.6044 13.8409 14.3115 14.9994 12.5428C15.682 11.5085 16.2302 10.5931 16.5819 9.98807H15.1235C15.0106 9.98692 14.9012 9.94888 14.812 9.87975C14.7228 9.81062 14.6586 9.7142 14.6293 9.6052C14.6 9.4962 14.6072 9.38061 14.6497 9.27606C14.6923 9.17152 14.7678 9.08375 14.8649 9.02617C16.1879 8.31266 17.4551 7.50014 18.6557 6.59554C18.7542 6.44571 18.844 6.2903 18.9246 6.1301C19.8801 4.25998 21.264 2.64214 22.9635 1.40848C23.0742 1.3289 23.2118 1.29621 23.3464 1.31752C23.481 1.33882 23.6017 1.4124 23.6824 1.52226C23.7218 1.57815 23.7498 1.64132 23.7646 1.70809C23.7795 1.77486 23.7809 1.84392 23.7689 1.91125C23.7569 1.97859 23.7316 2.04288 23.6946 2.10038C23.6575 2.15789 23.6094 2.20748 23.5531 2.24627C21.9796 3.38697 20.7012 4.88695 19.8244 6.6214C19.723 6.8248 19.609 7.0217 19.4831 7.21096C18.7273 7.87779 17.9 8.45883 17.0163 8.94342H17.4921C17.5818 8.94344 17.67 8.96681 17.748 9.01124C17.826 9.05567 17.891 9.11963 17.9368 9.19683C17.9822 9.27545 18.0061 9.36463 18.0061 9.45541C18.0061 9.54618 17.9822 9.63536 17.9368 9.71398C17.9058 9.77604 17.1249 11.2034 15.8682 13.1065C15.1239 14.148 14.1928 15.0424 13.1221 15.744L14.2598 15.9043C14.397 15.9139 14.5247 15.9776 14.6149 16.0814C14.7051 16.1852 14.7504 16.3205 14.7408 16.4577C14.7312 16.5948 14.6675 16.7226 14.5637 16.8128C14.46 16.903 14.3246 16.9482 14.1874 16.9386L14.203 16.9335ZM7.52132 22.1515C6.80374 22.1437 6.08789 22.0797 5.3803 21.9602C5.31238 21.9497 5.24721 21.9259 5.18849 21.8902C5.12978 21.8544 5.07867 21.8075 5.03809 21.752C4.99751 21.6966 4.96826 21.6337 4.95199 21.5669C4.93573 21.5001 4.93278 21.4308 4.9433 21.3629C4.95383 21.295 4.97763 21.2298 5.01334 21.1711C5.04906 21.1124 5.09599 21.0613 5.15145 21.0207C5.20692 20.9801 5.26983 20.9508 5.33661 20.9346C5.40338 20.9183 5.4727 20.9154 5.54062 20.9259C8.12639 21.3344 10.0399 21.1638 12.0516 19.09C12.3322 18.8038 12.5981 18.5035 12.848 18.1901C12.9333 18.0836 13.0573 18.0151 13.193 17.9996C13.3286 17.9841 13.4649 18.0228 13.572 18.1074C13.6259 18.1493 13.671 18.2015 13.7046 18.2609C13.7382 18.3204 13.7597 18.3859 13.7679 18.4537C13.7761 18.5215 13.7708 18.5902 13.7522 18.6559C13.7337 18.7216 13.7023 18.783 13.6599 18.8366C13.4117 19.1469 13.1428 19.4727 12.7963 19.8088C12.1402 20.5593 11.3283 21.1576 10.4173 21.5622C9.50627 21.9668 8.518 22.1679 7.52132 22.1515ZM21.5827 28.6729H16.5612C16.424 28.6729 16.2925 28.6184 16.1955 28.5214C16.0985 28.4244 16.044 28.2929 16.044 28.1557C16.044 28.0186 16.0985 27.887 16.1955 27.79C16.2925 27.693 16.424 27.6386 16.5612 27.6386H21.5827C21.7199 27.6386 21.8514 27.693 21.9484 27.79C22.0454 27.887 22.0999 28.0186 22.0999 28.1557C22.0999 28.2929 22.0454 28.4244 21.9484 28.5214C21.8514 28.6184 21.7199 28.6729 21.5827 28.6729ZM17.5903 31.0001H1.51715C1.38 31.0001 1.24846 30.9456 1.15147 30.8486C1.05449 30.7516 1 30.6201 1 30.4829C1 30.3457 1.05449 30.2142 1.15147 30.1172C1.24846 30.0202 1.38 29.9657 1.51715 29.9657H17.5903C17.7275 29.9657 17.859 30.0202 17.956 30.1172C18.053 30.2142 18.1075 30.3457 18.1075 30.4829C18.1075 30.6201 18.053 30.7516 17.956 30.8486C17.859 30.9456 17.7275 31.0001 17.5903 31.0001Z" fill="#FDFCEE" stroke="#FDFCEE"/>
</svg>
