<svg width="30" height="30" viewBox="0 0 30 30" fill="none" xmlns="http://www.w3.org/2000/svg">
<path d="M7.49633 1.5C7.49633 0.671572 8.16757 0 8.9956 0H17.9912C18.5108 0 18.9934 0.269178 19.2665 0.711403C19.5397 1.15363 19.5646 1.70584 19.3322 2.17082L18.1682 4.5L19.3322 6.82917C19.5646 7.29416 19.5397 7.84636 19.2665 8.28859C18.9934 8.73081 18.5108 8.99999 17.9912 8.99999H10.4949V11.744C10.9127 11.9262 11.3041 12.1884 11.6459 12.5303L17.9912 18.8787L19.8386 17.0303C21.3024 15.5659 23.6756 15.5659 25.1393 17.0303L29.1071 21C29.6694 21.5626 29.9853 22.3257 29.9853 23.1213V27C29.9853 28.6569 28.6428 30 26.9868 30H2.99853C1.34249 30 0 28.6569 0 27V20.1213C0 19.3257 0.315916 18.5626 0.878249 18L6.34524 12.5303C6.68707 12.1884 7.07848 11.9262 7.49633 11.744V1.5Z" fill="#FDFCEE"/>
</svg>
