<svg width="21" height="20" viewBox="0 0 21 20" fill="none" xmlns="http://www.w3.org/2000/svg">
<path fill-rule="evenodd" clip-rule="evenodd" d="M0.994415 7.0829C0.36144 7.65285 0 8.46481 0 9.31681V16.9946C0 18.6544 1.34492 20 3.00395 20H17.0224C18.6815 20 20.0264 18.6544 20.0264 16.9946V9.31681C20.0264 8.46481 19.6649 7.65285 19.032 7.0829L12.0227 0.771509C10.8803 -0.25717 9.14606 -0.257169 8.00364 0.77151L0.994415 7.0829ZM9.01187 10.9837C7.90584 10.9837 7.00923 11.8808 7.00923 12.9873V16.9946C7.00923 17.5479 7.45753 17.9964 8.01055 17.9964H12.0158C12.5688 17.9964 13.0171 17.5479 13.0171 16.9946V12.9873C13.0171 11.8808 12.1205 10.9837 11.0145 10.9837H9.01187Z" fill="#DBB580"/>
</svg>
