<svg width="221" height="53" viewBox="0 0 221 53" fill="none" xmlns="http://www.w3.org/2000/svg">
<path d="M0 52.2358C10.7828 49.2248 20.0365 41.8628 38.5753 27.1389C45.1175 21.9367 43.9195 22.9456 46.9305 20.7544C51.2814 17.5857 65.5954 7.30736 86.5935 2.59383C94.0658 0.922807 116.483 -3.27042 142.715 4.75363C160.276 10.1293 175.615 21.2746 181.637 25.9724C184.127 27.9114 181.637 25.9724 184.537 28.3528C192.798 35.1472 204.479 43.3762 220.48 51.1165C206.292 51.1953 3.68885 52.2043 0 52.2358Z" fill="#BDA88B"/>
<path d="M79.6387 21.8623L81.0127 20.3037L81.8262 19.5723L85.7773 15.1357H83.959L79.8848 19.7979H79.5635L79.6387 21.8623ZM78.2373 25H79.7686V15.1357H78.2373V25ZM84.1846 25H86.0986L81.8398 19.251L80.7598 20.29L84.1846 25ZM87.5547 25H89.0381V20.6455C89.0381 20.2445 89.1087 19.9004 89.25 19.6133C89.3958 19.3216 89.6009 19.0983 89.8652 18.9434C90.1296 18.7839 90.4417 18.7041 90.8018 18.7041C91.3486 18.7041 91.7497 18.8568 92.0049 19.1621C92.2646 19.4629 92.3945 19.9232 92.3945 20.543V25H93.8848V20.1943C93.8848 19.3102 93.6637 18.6289 93.2217 18.1504C92.7796 17.6719 92.1416 17.4326 91.3076 17.4326C90.7653 17.4326 90.3164 17.5443 89.9609 17.7676C89.6055 17.9909 89.3366 18.3008 89.1543 18.6973H89.0381V17.5762H87.5547V25ZM99.0938 25.1436C99.8229 25.1436 100.447 24.9886 100.967 24.6787C101.491 24.3688 101.894 23.9268 102.177 23.3525C102.464 22.7738 102.607 22.0879 102.607 21.2949V21.2812C102.607 20.4837 102.464 19.7979 102.177 19.2236C101.894 18.6449 101.491 18.2028 100.967 17.8975C100.443 17.5876 99.8184 17.4326 99.0938 17.4326C98.3737 17.4326 97.7493 17.5876 97.2207 17.8975C96.6966 18.2074 96.291 18.6494 96.0039 19.2236C95.7214 19.7979 95.5801 20.4837 95.5801 21.2812V21.2949C95.5801 22.0879 95.7214 22.7738 96.0039 23.3525C96.2865 23.9268 96.6898 24.3688 97.2139 24.6787C97.7425 24.9886 98.3691 25.1436 99.0938 25.1436ZM99.0938 23.8994C98.6699 23.8994 98.3099 23.7969 98.0137 23.5918C97.7174 23.3822 97.4896 23.0837 97.3301 22.6963C97.1751 22.3089 97.0977 21.8418 97.0977 21.2949V21.2812C97.0977 20.7298 97.1751 20.2604 97.3301 19.873C97.4896 19.4857 97.7174 19.1895 98.0137 18.9844C98.3099 18.7747 98.6699 18.6699 99.0938 18.6699C99.5176 18.6699 99.8776 18.7747 100.174 18.9844C100.47 19.1895 100.696 19.4857 100.851 19.873C101.006 20.2604 101.083 20.7298 101.083 21.2812V21.2949C101.083 21.8418 101.006 22.3089 100.851 22.6963C100.696 23.0837 100.47 23.3822 100.174 23.5918C99.8776 23.7969 99.5176 23.8994 99.0938 23.8994ZM105.506 25H107.03L108.555 19.4629H108.671L110.209 25H111.747L113.784 17.5762H112.314L110.981 23.3047H110.872L109.341 17.5762H107.926L106.401 23.3047H106.285L104.959 17.5762H103.462L105.506 25ZM115.377 25H116.86V14.6641H115.377V25ZM122.186 25.1436C122.664 25.1436 123.086 25.082 123.45 24.959C123.819 24.8359 124.134 24.6742 124.394 24.4736C124.658 24.2731 124.87 24.0521 125.029 23.8105C125.189 23.5645 125.3 23.3184 125.364 23.0723L125.378 23.0107H123.942L123.915 23.0654C123.86 23.193 123.758 23.3229 123.607 23.4551C123.462 23.5872 123.272 23.6989 123.04 23.79C122.812 23.8766 122.539 23.9199 122.22 23.9199C121.805 23.9199 121.445 23.8288 121.14 23.6465C120.839 23.4642 120.606 23.1999 120.442 22.8535C120.278 22.5072 120.196 22.0902 120.196 21.6025V21.0078C120.196 20.4974 120.278 20.0667 120.442 19.7158C120.611 19.3649 120.839 19.1006 121.126 18.9229C121.418 18.7406 121.748 18.6494 122.117 18.6494C122.486 18.6494 122.812 18.736 123.095 18.9092C123.377 19.0824 123.598 19.3444 123.758 19.6953C123.922 20.0417 124.004 20.4792 124.004 21.0078V21.6025L124.715 20.6182H119.451V21.6777H125.453V21.1582C125.453 20.4108 125.319 19.7591 125.05 19.2031C124.781 18.6426 124.396 18.2074 123.895 17.8975C123.398 17.5876 122.803 17.4326 122.11 17.4326C121.422 17.4326 120.821 17.5944 120.306 17.918C119.795 18.2415 119.399 18.6927 119.116 19.2715C118.838 19.8503 118.699 20.527 118.699 21.3018V21.3086C118.699 22.0924 118.838 22.7715 119.116 23.3457C119.399 23.9199 119.8 24.3643 120.319 24.6787C120.839 24.9886 121.461 25.1436 122.186 25.1436ZM129.924 25.123C130.27 25.123 130.589 25.0729 130.881 24.9727C131.173 24.8678 131.43 24.7197 131.653 24.5283C131.877 24.3324 132.061 24.0999 132.207 23.8311H132.316V25H133.807V14.6641H132.316V18.752H132.207C132.075 18.4831 131.895 18.2529 131.667 18.0615C131.439 17.8656 131.177 17.7152 130.881 17.6104C130.585 17.501 130.266 17.4463 129.924 17.4463C129.295 17.4463 128.75 17.6035 128.29 17.918C127.83 18.2279 127.474 18.6699 127.224 19.2441C126.973 19.8184 126.848 20.4974 126.848 21.2812V21.2949C126.848 22.0742 126.973 22.751 127.224 23.3252C127.479 23.8994 127.837 24.3438 128.297 24.6582C128.762 24.9681 129.304 25.123 129.924 25.123ZM130.348 23.8516C129.938 23.8516 129.582 23.749 129.281 23.5439C128.985 23.3389 128.757 23.0449 128.598 22.6621C128.443 22.2793 128.365 21.8236 128.365 21.2949V21.2812C128.365 20.748 128.443 20.2923 128.598 19.9141C128.757 19.5312 128.985 19.2373 129.281 19.0322C129.582 18.8226 129.938 18.7178 130.348 18.7178C130.758 18.7178 131.111 18.8226 131.407 19.0322C131.708 19.2373 131.938 19.5312 132.098 19.9141C132.262 20.2969 132.344 20.7526 132.344 21.2812V21.2949C132.344 21.819 132.264 22.2747 132.104 22.6621C131.945 23.0449 131.715 23.3389 131.414 23.5439C131.113 23.749 130.758 23.8516 130.348 23.8516ZM139.146 27.6182C139.852 27.6182 140.463 27.5042 140.978 27.2764C141.493 27.0485 141.889 26.7272 142.167 26.3125C142.45 25.8978 142.591 25.4102 142.591 24.8496V17.5762H141.107V18.793H141.019C140.873 18.515 140.688 18.2757 140.465 18.0752C140.242 17.8747 139.984 17.7197 139.692 17.6104C139.405 17.501 139.089 17.4463 138.742 17.4463C138.1 17.4463 137.546 17.6012 137.081 17.9111C136.616 18.2165 136.258 18.6426 136.008 19.1895C135.757 19.7318 135.632 20.3561 135.632 21.0625V21.0762C135.632 21.7734 135.755 22.391 136.001 22.9287C136.252 23.4619 136.607 23.8812 137.067 24.1865C137.532 24.4873 138.079 24.6377 138.708 24.6377C139.05 24.6377 139.367 24.5898 139.658 24.4941C139.95 24.3984 140.21 24.2572 140.438 24.0703C140.665 23.8789 140.852 23.651 140.998 23.3867H141.114V24.8428C141.114 25.3441 140.941 25.7337 140.595 26.0117C140.253 26.2897 139.777 26.4287 139.166 26.4287C138.669 26.4287 138.273 26.3467 137.977 26.1826C137.68 26.0186 137.5 25.8089 137.437 25.5537L137.43 25.54H135.926L135.919 25.5537C135.978 25.9639 136.142 26.3239 136.411 26.6338C136.68 26.9437 137.045 27.1852 137.505 27.3584C137.97 27.5316 138.517 27.6182 139.146 27.6182ZM139.125 23.4072C138.706 23.4072 138.348 23.3092 138.052 23.1133C137.76 22.9128 137.537 22.637 137.382 22.2861C137.227 21.9352 137.149 21.5296 137.149 21.0693V21.0557C137.149 20.5954 137.227 20.1898 137.382 19.8389C137.537 19.4834 137.76 19.2054 138.052 19.0049C138.348 18.8044 138.706 18.7041 139.125 18.7041C139.544 18.7041 139.904 18.8044 140.205 19.0049C140.506 19.2054 140.736 19.4834 140.896 19.8389C141.06 20.1943 141.142 20.5999 141.142 21.0557V21.0693C141.142 21.5296 141.06 21.9352 140.896 22.2861C140.736 22.637 140.506 22.9128 140.205 23.1133C139.904 23.3092 139.544 23.4072 139.125 23.4072ZM147.848 25.1436C148.326 25.1436 148.748 25.082 149.112 24.959C149.481 24.8359 149.796 24.6742 150.056 24.4736C150.32 24.2731 150.532 24.0521 150.691 23.8105C150.851 23.5645 150.963 23.3184 151.026 23.0723L151.04 23.0107H149.604L149.577 23.0654C149.522 23.193 149.42 23.3229 149.27 23.4551C149.124 23.5872 148.935 23.6989 148.702 23.79C148.474 23.8766 148.201 23.9199 147.882 23.9199C147.467 23.9199 147.107 23.8288 146.802 23.6465C146.501 23.4642 146.269 23.1999 146.104 22.8535C145.94 22.5072 145.858 22.0902 145.858 21.6025V21.0078C145.858 20.4974 145.94 20.0667 146.104 19.7158C146.273 19.3649 146.501 19.1006 146.788 18.9229C147.08 18.7406 147.41 18.6494 147.779 18.6494C148.148 18.6494 148.474 18.736 148.757 18.9092C149.039 19.0824 149.26 19.3444 149.42 19.6953C149.584 20.0417 149.666 20.4792 149.666 21.0078V21.6025L150.377 20.6182H145.113V21.6777H151.115V21.1582C151.115 20.4108 150.981 19.7591 150.712 19.2031C150.443 18.6426 150.058 18.2074 149.557 17.8975C149.06 17.5876 148.465 17.4326 147.772 17.4326C147.084 17.4326 146.483 17.5944 145.968 17.918C145.457 18.2415 145.061 18.6927 144.778 19.2715C144.5 19.8503 144.361 20.527 144.361 21.3018V21.3086C144.361 22.0924 144.5 22.7715 144.778 23.3457C145.061 23.9199 145.462 24.3643 145.981 24.6787C146.501 24.9886 147.123 25.1436 147.848 25.1436Z" fill="#FDFCEE"/>
<path fill-rule="evenodd" clip-rule="evenodd" d="M120.688 34.3126C120.271 33.8958 119.596 33.8958 119.179 34.3126L113 40.4947L106.821 34.3126C106.404 33.8958 105.729 33.8958 105.312 34.3126C104.896 34.7293 104.896 35.405 105.312 35.8218L111.492 42.0039C112.325 42.8374 113.675 42.8374 114.508 42.0039L120.688 35.8218C121.104 35.405 121.104 34.7293 120.688 34.3126Z" fill="#FDFCEE"/>
</svg>
