<svg width="221" height="53" viewBox="0 0 221 53" fill="none" xmlns="http://www.w3.org/2000/svg">
<path d="M0 52C10.7828 48.989 20.0365 41.8628 38.5753 27.1389C45.1175 21.9367 43.9195 22.9456 46.9305 20.7544C51.2814 17.5857 65.5954 7.30736 86.5935 2.59383C94.0658 0.922807 116.483 -3.27042 142.715 4.75363C160.276 10.1293 175.615 21.2746 181.637 25.9724C184.127 27.9114 181.637 25.9724 184.537 28.3528C192.798 35.1472 204.499 44.2597 220.5 52C206.312 52.0788 3.68885 51.9685 0 52Z" fill="#BDA88B"/>
<path fill-rule="evenodd" clip-rule="evenodd" d="M106.312 23.3964C106.729 23.8132 107.404 23.8132 107.821 23.3964L114 17.2143L120.179 23.3964C120.596 23.8132 121.271 23.8132 121.688 23.3964C122.104 22.9797 122.104 22.3039 121.688 21.8872L115.508 15.7051C114.675 14.8716 113.325 14.8716 112.492 15.7051L106.312 21.8872C105.896 22.3039 105.896 22.9796 106.312 23.3964Z" fill="#FDFCEE"/>
<path d="M79.6387 36.9424L81.0127 35.3838L81.8262 34.6523L85.7773 30.2158H83.959L79.8848 34.8779H79.5635L79.6387 36.9424ZM78.2373 40.0801H79.7686V30.2158H78.2373V40.0801ZM84.1846 40.0801H86.0986L81.8398 34.3311L80.7598 35.3701L84.1846 40.0801ZM87.5547 40.0801H89.0381V35.7256C89.0381 35.3245 89.1087 34.9805 89.25 34.6934C89.3958 34.4017 89.6009 34.1784 89.8652 34.0234C90.1296 33.8639 90.4417 33.7842 90.8018 33.7842C91.3486 33.7842 91.7497 33.9368 92.0049 34.2422C92.2646 34.543 92.3945 35.0033 92.3945 35.623V40.0801H93.8848V35.2744C93.8848 34.3903 93.6637 33.709 93.2217 33.2305C92.7796 32.752 92.1416 32.5127 91.3076 32.5127C90.7653 32.5127 90.3164 32.6243 89.9609 32.8477C89.6055 33.071 89.3366 33.3809 89.1543 33.7773H89.0381V32.6562H87.5547V40.0801ZM99.0938 40.2236C99.8229 40.2236 100.447 40.0687 100.967 39.7588C101.491 39.4489 101.894 39.0068 102.177 38.4326C102.464 37.8538 102.607 37.168 102.607 36.375V36.3613C102.607 35.5638 102.464 34.8779 102.177 34.3037C101.894 33.7249 101.491 33.2829 100.967 32.9775C100.443 32.6676 99.8184 32.5127 99.0938 32.5127C98.3737 32.5127 97.7493 32.6676 97.2207 32.9775C96.6966 33.2874 96.291 33.7295 96.0039 34.3037C95.7214 34.8779 95.5801 35.5638 95.5801 36.3613V36.375C95.5801 37.168 95.7214 37.8538 96.0039 38.4326C96.2865 39.0068 96.6898 39.4489 97.2139 39.7588C97.7425 40.0687 98.3691 40.2236 99.0938 40.2236ZM99.0938 38.9795C98.6699 38.9795 98.3099 38.877 98.0137 38.6719C97.7174 38.4622 97.4896 38.1637 97.3301 37.7764C97.1751 37.389 97.0977 36.9219 97.0977 36.375V36.3613C97.0977 35.8099 97.1751 35.3405 97.3301 34.9531C97.4896 34.5658 97.7174 34.2695 98.0137 34.0645C98.3099 33.8548 98.6699 33.75 99.0938 33.75C99.5176 33.75 99.8776 33.8548 100.174 34.0645C100.47 34.2695 100.696 34.5658 100.851 34.9531C101.006 35.3405 101.083 35.8099 101.083 36.3613V36.375C101.083 36.9219 101.006 37.389 100.851 37.7764C100.696 38.1637 100.47 38.4622 100.174 38.6719C99.8776 38.877 99.5176 38.9795 99.0938 38.9795ZM105.506 40.0801H107.03L108.555 34.543H108.671L110.209 40.0801H111.747L113.784 32.6562H112.314L110.981 38.3848H110.872L109.341 32.6562H107.926L106.401 38.3848H106.285L104.959 32.6562H103.462L105.506 40.0801ZM115.377 40.0801H116.86V29.7441H115.377V40.0801ZM122.186 40.2236C122.664 40.2236 123.086 40.1621 123.45 40.0391C123.819 39.916 124.134 39.7542 124.394 39.5537C124.658 39.3532 124.87 39.1322 125.029 38.8906C125.189 38.6445 125.3 38.3984 125.364 38.1523L125.378 38.0908H123.942L123.915 38.1455C123.86 38.2731 123.758 38.403 123.607 38.5352C123.462 38.6673 123.272 38.779 123.04 38.8701C122.812 38.9567 122.539 39 122.22 39C121.805 39 121.445 38.9089 121.14 38.7266C120.839 38.5443 120.606 38.2799 120.442 37.9336C120.278 37.5872 120.196 37.1702 120.196 36.6826V36.0879C120.196 35.5775 120.278 35.1468 120.442 34.7959C120.611 34.445 120.839 34.1807 121.126 34.0029C121.418 33.8206 121.748 33.7295 122.117 33.7295C122.486 33.7295 122.812 33.8161 123.095 33.9893C123.377 34.1624 123.598 34.4245 123.758 34.7754C123.922 35.1217 124.004 35.5592 124.004 36.0879V36.6826L124.715 35.6982H119.451V36.7578H125.453V36.2383C125.453 35.4909 125.319 34.8392 125.05 34.2832C124.781 33.7227 124.396 33.2874 123.895 32.9775C123.398 32.6676 122.803 32.5127 122.11 32.5127C121.422 32.5127 120.821 32.6745 120.306 32.998C119.795 33.3216 119.399 33.7728 119.116 34.3516C118.838 34.9303 118.699 35.6071 118.699 36.3818V36.3887C118.699 37.1725 118.838 37.8516 119.116 38.4258C119.399 39 119.8 39.4443 120.319 39.7588C120.839 40.0687 121.461 40.2236 122.186 40.2236ZM129.924 40.2031C130.27 40.2031 130.589 40.153 130.881 40.0527C131.173 39.9479 131.43 39.7998 131.653 39.6084C131.877 39.4124 132.061 39.18 132.207 38.9111H132.316V40.0801H133.807V29.7441H132.316V33.832H132.207C132.075 33.5632 131.895 33.333 131.667 33.1416C131.439 32.9456 131.177 32.7952 130.881 32.6904C130.585 32.5811 130.266 32.5264 129.924 32.5264C129.295 32.5264 128.75 32.6836 128.29 32.998C127.83 33.3079 127.474 33.75 127.224 34.3242C126.973 34.8984 126.848 35.5775 126.848 36.3613V36.375C126.848 37.1543 126.973 37.8311 127.224 38.4053C127.479 38.9795 127.837 39.4238 128.297 39.7383C128.762 40.0482 129.304 40.2031 129.924 40.2031ZM130.348 38.9316C129.938 38.9316 129.582 38.8291 129.281 38.624C128.985 38.4189 128.757 38.125 128.598 37.7422C128.443 37.3594 128.365 36.9036 128.365 36.375V36.3613C128.365 35.8281 128.443 35.3724 128.598 34.9941C128.757 34.6113 128.985 34.3174 129.281 34.1123C129.582 33.9027 129.938 33.7979 130.348 33.7979C130.758 33.7979 131.111 33.9027 131.407 34.1123C131.708 34.3174 131.938 34.6113 132.098 34.9941C132.262 35.377 132.344 35.8327 132.344 36.3613V36.375C132.344 36.8991 132.264 37.3548 132.104 37.7422C131.945 38.125 131.715 38.4189 131.414 38.624C131.113 38.8291 130.758 38.9316 130.348 38.9316ZM139.146 42.6982C139.852 42.6982 140.463 42.5843 140.978 42.3564C141.493 42.1286 141.889 41.8073 142.167 41.3926C142.45 40.9779 142.591 40.4902 142.591 39.9297V32.6562H141.107V33.873H141.019C140.873 33.5951 140.688 33.3558 140.465 33.1553C140.242 32.9548 139.984 32.7998 139.692 32.6904C139.405 32.5811 139.089 32.5264 138.742 32.5264C138.1 32.5264 137.546 32.6813 137.081 32.9912C136.616 33.2965 136.258 33.7227 136.008 34.2695C135.757 34.8118 135.632 35.4362 135.632 36.1426V36.1562C135.632 36.8535 135.755 37.471 136.001 38.0088C136.252 38.542 136.607 38.9613 137.067 39.2666C137.532 39.5674 138.079 39.7178 138.708 39.7178C139.05 39.7178 139.367 39.6699 139.658 39.5742C139.95 39.4785 140.21 39.3372 140.438 39.1504C140.665 38.959 140.852 38.7311 140.998 38.4668H141.114V39.9229C141.114 40.4242 140.941 40.8138 140.595 41.0918C140.253 41.3698 139.777 41.5088 139.166 41.5088C138.669 41.5088 138.273 41.4268 137.977 41.2627C137.68 41.0986 137.5 40.889 137.437 40.6338L137.43 40.6201H135.926L135.919 40.6338C135.978 41.0439 136.142 41.404 136.411 41.7139C136.68 42.0238 137.045 42.2653 137.505 42.4385C137.97 42.6117 138.517 42.6982 139.146 42.6982ZM139.125 38.4873C138.706 38.4873 138.348 38.3893 138.052 38.1934C137.76 37.9928 137.537 37.7171 137.382 37.3662C137.227 37.0153 137.149 36.6097 137.149 36.1494V36.1357C137.149 35.6755 137.227 35.2699 137.382 34.9189C137.537 34.5635 137.76 34.2855 138.052 34.085C138.348 33.8844 138.706 33.7842 139.125 33.7842C139.544 33.7842 139.904 33.8844 140.205 34.085C140.506 34.2855 140.736 34.5635 140.896 34.9189C141.06 35.2744 141.142 35.68 141.142 36.1357V36.1494C141.142 36.6097 141.06 37.0153 140.896 37.3662C140.736 37.7171 140.506 37.9928 140.205 38.1934C139.904 38.3893 139.544 38.4873 139.125 38.4873ZM147.848 40.2236C148.326 40.2236 148.748 40.1621 149.112 40.0391C149.481 39.916 149.796 39.7542 150.056 39.5537C150.32 39.3532 150.532 39.1322 150.691 38.8906C150.851 38.6445 150.963 38.3984 151.026 38.1523L151.04 38.0908H149.604L149.577 38.1455C149.522 38.2731 149.42 38.403 149.27 38.5352C149.124 38.6673 148.935 38.779 148.702 38.8701C148.474 38.9567 148.201 39 147.882 39C147.467 39 147.107 38.9089 146.802 38.7266C146.501 38.5443 146.269 38.2799 146.104 37.9336C145.94 37.5872 145.858 37.1702 145.858 36.6826V36.0879C145.858 35.5775 145.94 35.1468 146.104 34.7959C146.273 34.445 146.501 34.1807 146.788 34.0029C147.08 33.8206 147.41 33.7295 147.779 33.7295C148.148 33.7295 148.474 33.8161 148.757 33.9893C149.039 34.1624 149.26 34.4245 149.42 34.7754C149.584 35.1217 149.666 35.5592 149.666 36.0879V36.6826L150.377 35.6982H145.113V36.7578H151.115V36.2383C151.115 35.4909 150.981 34.8392 150.712 34.2832C150.443 33.7227 150.058 33.2874 149.557 32.9775C149.06 32.6676 148.465 32.5127 147.772 32.5127C147.084 32.5127 146.483 32.6745 145.968 32.998C145.457 33.3216 145.061 33.7728 144.778 34.3516C144.5 34.9303 144.361 35.6071 144.361 36.3818V36.3887C144.361 37.1725 144.5 37.8516 144.778 38.4258C145.061 39 145.462 39.4443 145.981 39.7588C146.501 40.0687 147.123 40.2236 147.848 40.2236Z" fill="#FDFCEE"/>
</svg>
