<svg width="22" height="22" viewBox="0 0 22 22" fill="none" xmlns="http://www.w3.org/2000/svg">
<path d="M12.9311 11.9534C12.4789 11.9534 12.1122 12.32 12.1122 12.7723C12.1122 13.2245 12.4789 13.5911 12.9311 13.5911C13.3833 13.5911 13.75 13.2245 13.75 12.7723C13.7438 12.32 13.3772 11.9534 12.9311 11.9534Z" fill="#DBB580"/>
<path d="M9.6189 8.45789V9.63123L13.7133 9.08734C13.7256 9.08734 13.7378 9.09345 13.75 9.09956V7.96289L9.6189 8.45789Z" fill="#DBB580"/>
<path d="M8.51884 12.4299C8.06662 12.4299 7.69995 12.7966 7.69995 13.2488C7.69995 13.701 8.06662 14.0677 8.51884 14.0677C8.97106 14.0677 9.33773 13.701 9.33773 13.2488C9.33773 12.7966 8.97106 12.4299 8.51884 12.4299Z" fill="#DBB580"/>
<path d="M11.0061 3.59937C6.92392 3.59937 3.60559 6.9177 3.60559 10.9999C3.60559 15.0821 6.92392 18.4005 11.0061 18.4005C15.0884 18.4005 18.4067 15.0821 18.4067 10.9999C18.4067 6.9177 15.0823 3.59937 11.0061 3.59937ZM14.025 12.6988C14.025 12.7049 14.0189 12.7049 14.0189 12.711C14.0189 12.7294 14.025 12.7477 14.025 12.766C14.025 13.371 13.5361 13.8599 12.9311 13.8599C12.3261 13.8599 11.8373 13.371 11.8373 12.766C11.8373 12.161 12.3261 11.6721 12.9311 11.6721C13.255 11.6721 13.5484 11.8188 13.75 12.0449V9.35603L9.63725 9.90603C9.63114 9.90603 9.62503 9.90603 9.62503 9.90603V13.2366V13.2427C9.62503 13.8477 9.13614 14.3366 8.53114 14.3366C7.92614 14.3366 7.43726 13.8477 7.43726 13.2427C7.43726 12.6377 7.92614 12.1488 8.53114 12.1488C8.85503 12.1488 9.14837 12.2955 9.35004 12.5216V8.32936C9.35004 8.25603 9.40503 8.20103 9.47226 8.18881L13.8784 7.65103C13.9211 7.64492 13.9578 7.65714 13.9884 7.6877C14.0189 7.71214 14.0373 7.75492 14.0373 7.79159V12.6988H14.025Z" fill="#DBB580"/>
<path d="M18.5656 0H3.44055C1.54 0 0 1.54 0 3.44055V18.5594C0 20.46 1.54 22 3.44055 22H18.5594C20.46 22 22 20.46 22 18.5594V3.44055C22 1.54 20.46 0 18.5656 0ZM11.0061 19.3172C6.41667 19.3172 2.68889 15.5894 2.68889 11C2.68889 6.41056 6.42278 2.68278 11.0061 2.68278C15.5894 2.68278 19.3233 6.41667 19.3233 11C19.3233 15.5833 15.5894 19.3172 11.0061 19.3172Z" fill="#DBB580"/>
<path d="M8.51894 14.19C7.91394 14.19 7.42505 13.7011 7.42505 13.0961C7.42505 12.4911 7.91394 12.0022 8.51894 12.0022C9.12394 12.0022 9.61283 12.4911 9.61283 13.0961C9.61894 13.695 9.12394 14.19 8.51894 14.19ZM8.51894 12.2711C8.06672 12.2711 7.70005 12.6378 7.70005 13.09C7.70005 13.5422 8.06672 13.9089 8.51894 13.9089C8.97116 13.9089 9.33782 13.5422 9.33782 13.09C9.33782 12.6378 8.97116 12.2711 8.51894 12.2711Z" stroke="#1A1B15" stroke-width="0.5" stroke-miterlimit="10"/>
<path d="M9.47845 13.2184C9.399 13.2184 9.33789 13.1572 9.33789 13.0778V8.17669C9.33789 8.10335 9.39289 8.04836 9.46012 8.03613L13.8662 7.49835C13.909 7.49224 13.9457 7.50447 13.9762 7.53502C14.0068 7.55947 14.0251 7.60224 14.0251 7.63891V12.54C14.0251 12.6195 13.964 12.6806 13.8846 12.6806C13.8051 12.6806 13.744 12.6195 13.744 12.54V7.79169L9.61289 8.2928V13.0717C9.619 13.1572 9.55178 13.2184 9.47845 13.2184Z" stroke="#1A1B15" stroke-width="0.5" stroke-miterlimit="10"/>
<path d="M12.9312 13.7073C12.3262 13.7073 11.8373 13.2184 11.8373 12.6134C11.8373 12.0084 12.3262 11.5195 12.9312 11.5195C13.5362 11.5195 14.0251 12.0084 14.0251 12.6134C14.0251 13.2184 13.5301 13.7073 12.9312 13.7073ZM12.9312 11.7945C12.4789 11.7945 12.1123 12.1612 12.1123 12.6134C12.1123 13.0656 12.4789 13.4323 12.9312 13.4323C13.3834 13.4323 13.7501 13.0656 13.7501 12.6134C13.7501 12.1612 13.3773 11.7945 12.9312 11.7945Z" stroke="#1A1B15" stroke-width="0.5" stroke-miterlimit="10"/>
<path d="M9.61284 9.75322C9.54562 9.75322 9.4845 9.70433 9.47228 9.631C9.46006 9.55767 9.51506 9.48433 9.5945 9.47211L13.7134 8.92211C13.7867 8.90989 13.8601 8.96489 13.8723 9.04434C13.8845 9.11767 13.8295 9.191 13.7501 9.20322L9.63117 9.75322C9.62506 9.75322 9.61895 9.75322 9.61284 9.75322Z" stroke="#1A1B15" stroke-width="0.5" stroke-miterlimit="10"/>
</svg>
