<svg width="20" height="20" viewBox="0 0 20 20" fill="none" xmlns="http://www.w3.org/2000/svg">
<path d="M11.7556 10.8667C11.3444 10.8667 11.0111 11.2 11.0111 11.6111C11.0111 12.0223 11.3444 12.3556 11.7556 12.3556C12.1667 12.3556 12.5 12.0223 12.5 11.6111C12.4944 11.2 12.1611 10.8667 11.7556 10.8667Z" fill="white" fill-opacity="0.25"/>
<path d="M8.74451 7.68892V8.75559L12.4667 8.26115C12.4778 8.26115 12.489 8.2667 12.5001 8.27226V7.23892L8.74451 7.68892Z" fill="white" fill-opacity="0.25"/>
<path d="M7.74445 11.3C7.33334 11.3 7 11.6333 7 12.0444C7 12.4555 7.33334 12.7889 7.74445 12.7889C8.15556 12.7889 8.48889 12.4555 8.48889 12.0444C8.48889 11.6333 8.15556 11.3 7.74445 11.3Z" fill="white" fill-opacity="0.25"/>
<path d="M10.0056 3.27225C6.2945 3.27225 3.27783 6.28891 3.27783 10C3.27783 13.7111 6.2945 16.7278 10.0056 16.7278C13.7167 16.7278 16.7334 13.7111 16.7334 10C16.7334 6.28891 13.7112 3.27225 10.0056 3.27225ZM12.7501 11.5445C12.7501 11.55 12.7445 11.55 12.7445 11.5556C12.7445 11.5722 12.7501 11.5889 12.7501 11.6056C12.7501 12.1556 12.3056 12.6 11.7556 12.6C11.2056 12.6 10.7612 12.1556 10.7612 11.6056C10.7612 11.0556 11.2056 10.6111 11.7556 10.6111C12.0501 10.6111 12.3167 10.7445 12.5001 10.95V8.50558L8.76116 9.00558C8.75561 9.00558 8.75005 9.00558 8.75005 9.00558V12.0334V12.0389C8.75005 12.5889 8.30561 13.0334 7.75561 13.0334C7.20561 13.0334 6.76116 12.5889 6.76116 12.0389C6.76116 11.4889 7.20561 11.0445 7.75561 11.0445C8.05005 11.0445 8.31672 11.1778 8.50006 11.3834V7.57225C8.50006 7.50558 8.55005 7.45558 8.61116 7.44447L12.6167 6.95558C12.6556 6.95002 12.6889 6.96114 12.7167 6.98892C12.7445 7.01114 12.7612 7.05003 12.7612 7.08336V11.5445H12.7501Z" fill="white" fill-opacity="0.25"/>
<path d="M16.8778 0H3.12778C1.4 0 0 1.4 0 3.12778V16.8722C0 18.6 1.4 20 3.12778 20H16.8722C18.6 20 20 18.6 20 16.8722V3.12778C20 1.4 18.6 0 16.8778 0ZM10.0056 17.5611C5.83333 17.5611 2.44445 14.1722 2.44445 10C2.44445 5.82778 5.83889 2.43889 10.0056 2.43889C14.1722 2.43889 17.5667 5.83333 17.5667 10C17.5667 14.1667 14.1722 17.5611 10.0056 17.5611Z" fill="white" fill-opacity="0.25"/>
<path d="M7.74444 12.9C7.19444 12.9 6.75 12.4555 6.75 11.9055C6.75 11.3555 7.19444 10.9111 7.74444 10.9111C8.29444 10.9111 8.73889 11.3555 8.73889 11.9055C8.74445 12.45 8.29444 12.9 7.74444 12.9ZM7.74444 11.1555C7.33333 11.1555 7 11.4888 7 11.9C7 12.3111 7.33333 12.6444 7.74444 12.6444C8.15556 12.6444 8.48889 12.3111 8.48889 11.9C8.48889 11.4888 8.15556 11.1555 7.74444 11.1555Z" stroke="#1A1B15" stroke-width="0.5" stroke-miterlimit="10"/>
<path d="M8.61679 12.0166C8.54457 12.0166 8.48901 11.961 8.48901 11.8888V7.43324C8.48901 7.36657 8.53902 7.31658 8.60013 7.30547L12.6057 6.81657C12.6446 6.81102 12.6779 6.82213 12.7057 6.84991C12.7335 6.87213 12.7501 6.91102 12.7501 6.94435V11.3999C12.7501 11.4721 12.6946 11.5277 12.6223 11.5277C12.5501 11.5277 12.4946 11.4721 12.4946 11.3999V7.08324L8.73902 7.5388V11.8832C8.74457 11.961 8.68346 12.0166 8.61679 12.0166Z" stroke="#1A1B15" stroke-width="0.5" stroke-miterlimit="10"/>
<path d="M11.7556 12.4611C11.2056 12.4611 10.7611 12.0166 10.7611 11.4666C10.7611 10.9166 11.2056 10.4722 11.7556 10.4722C12.3056 10.4722 12.75 10.9166 12.75 11.4666C12.75 12.0166 12.3 12.4611 11.7556 12.4611ZM11.7556 10.7222C11.3444 10.7222 11.0111 11.0555 11.0111 11.4666C11.0111 11.8777 11.3444 12.2111 11.7556 12.2111C12.1667 12.2111 12.5 11.8777 12.5 11.4666C12.5 11.0555 12.1611 10.7222 11.7556 10.7222Z" stroke="#1A1B15" stroke-width="0.5" stroke-miterlimit="10"/>
<path d="M8.73894 8.8666C8.67783 8.8666 8.62228 8.82216 8.61116 8.75549C8.60005 8.68882 8.65005 8.62215 8.72227 8.61104L12.4667 8.11104C12.5334 8.09993 12.6001 8.14993 12.6112 8.22216C12.6223 8.28882 12.5723 8.35549 12.5001 8.3666L8.75561 8.8666C8.75005 8.8666 8.7445 8.8666 8.73894 8.8666Z" stroke="#1A1B15" stroke-width="0.5" stroke-miterlimit="10"/>
</svg>
