<svg width="30" height="21" viewBox="0 0 30 21" fill="none" xmlns="http://www.w3.org/2000/svg">
<path fill-rule="evenodd" clip-rule="evenodd" d="M29.1289 1.71429C29.1289 0.767515 28.3618 0 27.4155 0H1.71363C0.767311 0 0.000171661 0.767515 0.000171661 1.71429C0.000171661 2.66107 0.767311 3.42858 1.71363 3.42858H27.4155C28.3618 3.42858 29.1289 2.66107 29.1289 1.71429Z" fill="#DBB580"/>
<path fill-rule="evenodd" clip-rule="evenodd" d="M29.1289 10.1428C29.1289 9.19598 28.3618 8.42847 27.4155 8.42847H10.2809C9.33459 8.42847 8.56745 9.19598 8.56745 10.1428C8.56745 11.0895 9.33459 11.8571 10.2809 11.8571H27.4155C28.3618 11.8571 29.1289 11.0895 29.1289 10.1428Z" fill="#DBB580"/>
<path fill-rule="evenodd" clip-rule="evenodd" d="M29.1289 18.5712C29.1289 17.6244 28.3618 16.8569 27.4155 16.8569H17.1347C16.1884 16.8569 15.4213 17.6244 15.4213 18.5712C15.4213 19.518 16.1884 20.2855 17.1347 20.2855H27.4155C28.3618 20.2855 29.1289 19.518 29.1289 18.5712Z" fill="#DBB580"/>
</svg>
