<svg width="75" height="22" viewBox="0 0 75 22" fill="none" xmlns="http://www.w3.org/2000/svg">
<path d="M0.952 21.096C0.738667 21.096 0.589333 21.0213 0.504 20.872C0.418667 20.7227 0.376 20.5627 0.376 20.392C0.397333 20.0293 0.482667 19.8267 0.632 19.784C0.781333 19.7413 0.962667 19.72 1.176 19.72C1.85867 19.72 2.33867 19.6027 2.616 19.368C2.89333 19.112 3.064 18.8027 3.128 18.44C3.21333 18.056 3.256 17.6613 3.256 17.256V4.552C3.256 4.14667 3.21333 3.76267 3.128 3.4C3.064 3.016 2.89333 2.70667 2.616 2.472C2.33867 2.216 1.85867 2.088 1.176 2.088C0.962667 2.088 0.781333 2.06667 0.632 2.024C0.482667 1.98133 0.397333 1.77867 0.376 1.416C0.376 1.24533 0.418667 1.08533 0.504 0.935999C0.589333 0.786666 0.738667 0.712 0.952 0.712C1.63467 0.733333 2.27467 0.754666 2.872 0.775999C3.46933 0.797332 4.088 0.807999 4.728 0.807999C6.02933 0.807999 7.36267 0.775999 8.728 0.712C8.94133 0.712 9.09067 0.786666 9.176 0.935999C9.26133 1.08533 9.304 1.24533 9.304 1.416C9.28267 1.77867 9.19733 1.98133 9.048 2.024C8.92 2.06667 8.73867 2.088 8.504 2.088C7.84267 2.088 7.36267 2.216 7.064 2.472C6.78667 2.70667 6.616 3.016 6.552 3.4C6.488 3.76267 6.44533 4.14667 6.424 4.552V10.344C6.78667 10.2587 7.20267 10.0453 7.672 9.704C8.16267 9.34133 8.65333 8.95733 9.144 8.552C9.95467 7.80533 10.744 7.00533 11.512 6.152C12.28 5.27733 12.9947 4.44533 13.656 3.656C14.5093 2.696 14.4133 2.184 13.368 2.12C13.1333 2.09867 12.984 1.87467 12.92 1.448C12.92 1.256 12.9733 1.08533 13.08 0.935999C13.1867 0.786666 13.3253 0.712 13.496 0.712C14.0507 0.754666 14.6373 0.786666 15.256 0.807999C15.8747 0.807999 16.4613 0.807999 17.016 0.807999C17.4427 0.807999 17.9333 0.797332 18.488 0.775999C19.0427 0.754666 19.5227 0.733333 19.928 0.712C20.1413 0.712 20.2907 0.786666 20.376 0.935999C20.4827 1.08533 20.536 1.256 20.536 1.448C20.5147 1.768 20.44 1.96 20.312 2.024C20.2053 2.088 20.0667 2.12 19.896 2.12C19.1067 2.07733 18.328 2.20533 17.56 2.504C16.792 2.80267 15.9707 3.38933 15.096 4.264C14.8187 4.56267 14.456 4.94667 14.008 5.416C13.5813 5.864 13.1227 6.33333 12.632 6.824C12.1627 7.31467 11.7147 7.77333 11.288 8.2C10.8827 8.62667 10.552 8.97867 10.296 9.256C10.04 9.53333 9.912 9.672 9.912 9.672C11.1707 11.1867 12.44 12.584 13.72 13.864C15.0213 15.144 16.1307 16.2747 17.048 17.256C17.7733 17.9813 18.36 18.5573 18.808 18.984C19.2773 19.3893 19.8747 19.6347 20.6 19.72C20.7707 19.7413 20.9413 19.7733 21.112 19.816C21.2827 19.8373 21.3787 20.0293 21.4 20.392C21.4 20.5627 21.3573 20.7227 21.272 20.872C21.1867 21.0213 21.0373 21.096 20.824 21.096C20.376 21.0747 20.024 21.0533 19.768 21.032C19.5333 21.032 19.2987 21.0213 19.064 21C18.8507 21 18.5307 21 18.104 21H16.056C14.8827 19.6987 13.6773 18.3547 12.44 16.968C11.224 15.5813 9.912 14.0773 8.504 12.456C8.12 12.008 7.75733 11.688 7.416 11.496C7.096 11.304 6.76533 11.1973 6.424 11.176V17.256C6.44533 17.6613 6.488 18.056 6.552 18.44C6.616 18.8027 6.78667 19.112 7.064 19.368C7.36267 19.6027 7.84267 19.72 8.504 19.72C8.73867 19.72 8.92 19.7413 9.048 19.784C9.19733 19.8267 9.28267 20.0293 9.304 20.392C9.304 20.5627 9.26133 20.7227 9.176 20.872C9.09067 21.0213 8.94133 21.096 8.728 21.096C7.36267 21.032 6.04 21 4.76 21C4.12 21 3.49067 21 2.872 21C2.27467 21.0213 1.63467 21.0533 0.952 21.096ZM24.9263 21.384C24.3503 21.384 23.8703 21.2027 23.4863 20.84C23.1023 20.456 22.9103 19.9653 22.9103 19.368C22.9103 18.8133 23.1023 18.344 23.4863 17.96C23.8703 17.576 24.3609 17.384 24.9583 17.384C25.5343 17.384 26.0143 17.576 26.3983 17.96C26.8036 18.344 27.0063 18.8133 27.0063 19.368C27.0063 19.9653 26.8036 20.456 26.3983 20.84C26.0143 21.2027 25.5236 21.384 24.9263 21.384ZM31.092 21C30.6867 21 30.3987 20.8933 30.228 20.68C30.0573 20.4667 29.972 20.1893 29.972 19.848C30.0147 19.3573 30.1533 18.9733 30.388 18.696C30.6227 18.4187 30.9747 18.1307 31.444 17.832C32.2333 17.2987 33.0653 16.7227 33.94 16.104C34.8147 15.4853 35.636 14.8027 36.404 14.056C37.172 13.288 37.7907 12.4453 38.26 11.528C38.7507 10.6107 38.996 9.576 38.996 8.424C38.996 7.4 38.7187 6.61067 38.164 6.056C37.6307 5.48 36.8733 5.192 35.892 5.192C35.0813 5.192 34.3987 5.39467 33.844 5.8C33.2893 6.20533 33.012 6.78133 33.012 7.528C33.012 7.89067 33.0973 8.2 33.268 8.456C33.4387 8.69067 33.6093 8.88267 33.78 9.032C33.972 9.16 34.068 9.24533 34.068 9.288C34.068 9.39467 33.94 9.56533 33.684 9.8C33.428 10.0347 33.0653 10.152 32.596 10.152C31.9133 10.152 31.38 9.93867 30.996 9.512C30.612 9.08533 30.42 8.56267 30.42 7.944C30.42 7.02667 30.7187 6.28 31.316 5.704C31.9347 5.128 32.6813 4.712 33.556 4.456C34.452 4.17867 35.3267 4.04 36.18 4.04C37.1187 4.04 38.036 4.2 38.932 4.52C39.8493 4.81867 40.596 5.32 41.172 6.024C41.7693 6.728 42.068 7.66667 42.068 8.84C42.068 9.82133 41.844 10.7173 41.396 11.528C40.9693 12.3173 40.404 13.0427 39.7 13.704C38.996 14.3653 38.228 14.9733 37.396 15.528C36.5853 16.0827 35.7747 16.6053 34.964 17.096C34.1533 17.5867 33.4387 18.0773 32.82 18.568V18.728H41.396C41.8227 18.728 42.1853 18.7813 42.484 18.888C42.7827 18.9733 42.932 19.2933 42.932 19.848C42.932 20.616 42.5587 21 41.812 21H31.092ZM52.5708 21.64C50.5654 21.64 48.9548 21.0213 47.7388 19.784C46.5228 18.5253 45.9148 16.7973 45.9148 14.6C45.9148 12.8507 46.3308 11.24 47.1628 9.768C47.9948 8.27467 49.1468 7.02667 50.6188 6.024C52.0908 5 53.7974 4.31733 55.7388 3.976C56.0801 3.93333 56.3468 3.944 56.5388 4.008C56.7521 4.05067 56.8588 4.22133 56.8588 4.52C56.8588 4.62667 56.8161 4.75467 56.7308 4.904C56.6668 5.032 56.5174 5.128 56.2828 5.192C54.2348 5.832 52.6454 6.71733 51.5148 7.848C50.4054 8.97867 49.6694 10.28 49.3068 11.752C50.0534 11.2613 50.7681 10.9307 51.4508 10.76C52.1334 10.568 52.8374 10.472 53.5628 10.472C54.6081 10.472 55.5468 10.7067 56.3788 11.176C57.2108 11.624 57.8721 12.2427 58.3628 13.032C58.8748 13.8213 59.1308 14.7387 59.1308 15.784C59.1308 16.9573 58.8108 17.992 58.1708 18.888C57.5521 19.7627 56.7414 20.4453 55.7388 20.936C54.7574 21.4053 53.7014 21.64 52.5708 21.64ZM52.5708 20.616C53.5734 20.616 54.4054 20.2 55.0668 19.368C55.7281 18.536 56.0588 17.4373 56.0588 16.072C56.0588 14.8133 55.7281 13.8107 55.0668 13.064C54.4054 12.296 53.5414 11.912 52.4748 11.912C51.9414 11.912 51.3761 12.0507 50.7788 12.328C50.2028 12.584 49.6694 12.936 49.1788 13.384C49.1574 13.512 49.1148 13.6933 49.0508 13.928C49.0081 14.1627 48.9868 14.3973 48.9868 14.632C48.9868 15.1867 49.0401 15.8053 49.1468 16.488C49.2748 17.1707 49.4668 17.832 49.7228 18.472C50.0001 19.0907 50.3628 19.6027 50.8108 20.008C51.2801 20.4133 51.8668 20.616 52.5708 20.616ZM67.348 21.64C66.4093 21.64 65.5133 21.5227 64.66 21.288C63.828 21.0533 63.1453 20.68 62.612 20.168C62.1 19.6347 61.844 18.9413 61.844 18.088C61.844 17.4693 62.036 16.904 62.42 16.392C62.804 15.8587 63.3373 15.592 64.02 15.592C64.4893 15.592 64.852 15.7093 65.108 15.944C65.364 16.1787 65.492 16.3493 65.492 16.456C65.492 16.4987 65.396 16.5947 65.204 16.744C65.0333 16.872 64.8627 17.0533 64.692 17.288C64.5213 17.5227 64.436 17.832 64.436 18.216C64.436 18.9413 64.692 19.496 65.204 19.88C65.7373 20.264 66.4733 20.456 67.412 20.456C68.6493 20.456 69.5453 20.0187 70.1 19.144C70.6547 18.2693 70.932 17.2027 70.932 15.944C70.932 15.2187 70.8147 14.536 70.58 13.896C70.3453 13.2347 69.972 12.7013 69.46 12.296C68.948 11.8693 68.2547 11.6453 67.38 11.624C66.612 11.6027 65.9827 11.7307 65.492 12.008C65.0013 12.2853 64.5853 12.5627 64.244 12.84C63.9027 13.1173 63.5613 13.256 63.22 13.256C62.9427 13.256 62.7827 13.0853 62.74 12.744C62.7187 12.4027 62.7187 12.1467 62.74 11.976L63.732 4.36H72.532C72.8307 4.36 73.0653 4.456 73.236 4.648C73.428 4.81867 73.524 5.08533 73.524 5.448C73.524 6.23733 73.1187 6.632 72.308 6.632H65.204L64.532 11.08C65.4707 10.504 66.6227 10.216 67.988 10.216C68.628 10.216 69.2893 10.3227 69.972 10.536C70.676 10.7493 71.3267 11.08 71.924 11.528C72.5427 11.976 73.044 12.552 73.428 13.256C73.812 13.96 74.004 14.8027 74.004 15.784C74.004 17.064 73.684 18.1413 73.044 19.016C72.4253 19.8693 71.6147 20.52 70.612 20.968C69.6093 21.416 68.5213 21.64 67.348 21.64Z" fill="#E4CE9E"/>
</svg>
