<svg width="18" height="26" viewBox="0 0 18 26" fill="none" xmlns="http://www.w3.org/2000/svg">
<path d="M5.14307 3.85903C5.14307 1.72775 6.86997 0 9.00021 0C11.1305 0 12.8574 1.72775 12.8574 3.85903V11.5771C12.8574 13.7084 11.1305 15.4361 9.00021 15.4361C6.86997 15.4361 5.14307 13.7084 5.14307 11.5771V3.85903Z" fill="#DBB580"/>
<path d="M2.57143 11.5772C2.57143 10.8668 1.99579 10.2909 1.28571 10.2909C0.575634 10.2909 0 10.8668 0 11.5772C0 16.1135 3.35276 19.8663 7.71429 20.4904V23.1543H5.14286C4.43278 23.1543 3.85714 23.7302 3.85714 24.4407C3.85714 25.1511 4.43278 25.727 5.14286 25.727H12.8571C13.5672 25.727 14.1429 25.1511 14.1429 24.4407C14.1429 23.7302 13.5672 23.1543 12.8571 23.1543H10.2857V20.4904C14.6472 19.8663 18 16.1135 18 11.5772C18 10.8668 17.4244 10.2909 16.7143 10.2909C16.0042 10.2909 15.4286 10.8668 15.4286 11.5772C15.4286 15.1294 12.5504 18.0089 9 18.0089C5.4496 18.0089 2.57143 15.1294 2.57143 11.5772Z" fill="#DBB580"/>
</svg>
