<svg width="50" height="50" viewBox="0 0 50 50" fill="none" xmlns="http://www.w3.org/2000/svg">
<circle cx="25" cy="25" r="25" fill="#DBB580"/>
<path d="M29.591 15.7991C28.1321 16.1641 27.1086 17.4755 27.1086 18.9801V26.8414C26.4659 26.4694 25.7197 26.2565 24.9238 26.2565C22.5105 26.2565 20.5542 28.2138 20.5542 30.6283C20.5542 33.0427 22.5105 35 24.9238 35C27.3371 35 29.2934 33.0427 29.2934 30.6283V22.8215C29.2934 22.5921 29.4495 22.3921 29.6721 22.3365L33.3655 21.4127C34.8244 21.0478 35.8478 19.7363 35.8478 18.2318V17.7337C35.8478 15.9561 34.1781 14.6518 32.4545 15.0829L29.591 15.7991Z" fill="#FDFCEE"/>
<path fill-rule="evenodd" clip-rule="evenodd" d="M14 18.6059C14 18.0023 14.4891 17.5129 15.0924 17.5129H23.8316C24.4349 17.5129 24.924 18.0023 24.924 18.6059C24.924 19.2095 24.4349 19.6988 23.8316 19.6988H15.0924C14.4891 19.6988 14 19.2095 14 18.6059Z" fill="#FDFCEE"/>
<path fill-rule="evenodd" clip-rule="evenodd" d="M14 22.9777C14 22.3741 14.4891 21.8848 15.0924 21.8848H23.8316C24.4349 21.8848 24.924 22.3741 24.924 22.9777C24.924 23.5813 24.4349 24.0706 23.8316 24.0706H15.0924C14.4891 24.0706 14 23.5813 14 22.9777Z" fill="#FDFCEE"/>
<path fill-rule="evenodd" clip-rule="evenodd" d="M14 27.3495C14 26.7459 14.4891 26.2566 15.0924 26.2566H18.3696C18.9729 26.2566 19.462 26.7459 19.462 27.3495C19.462 27.9531 18.9729 28.4425 18.3696 28.4425H15.0924C14.4891 28.4425 14 27.9531 14 27.3495Z" fill="#FDFCEE"/>
</svg>
