<svg width="28" height="30" viewBox="0 0 28 30" fill="none" xmlns="http://www.w3.org/2000/svg">
<path d="M11.3402 6.7167C12.7753 6.12508 13.7086 4.74418 13.7072 3.21447V2.10381C13.7086 1.39889 13.35 0.740309 12.7526 0.350415C12.1551 -0.0394796 11.3985 -0.108655 10.7381 0.166241L8.42885 1.12287C6.99505 1.71159 6.06157 3.08957 6.06185 4.61698V15.8209C5.35645 15.1644 4.4187 14.8039 3.44742 14.8156C1.54227 14.8156 0 16.0722 0 17.6206C0 19.1691 1.52577 20.4094 3.44742 20.4094C5.36906 20.4094 6.88659 19.1528 6.88659 17.6125V8.52456L11.3402 6.7167Z" fill="#DBB580"/>
<path d="M27.0927 3.9847C26.5144 3.59402 25.7782 3.50621 25.1216 3.7496L16.0494 7.13022C14.5585 7.69881 13.5758 9.10908 13.5752 10.6811V25.4034C12.8668 24.7465 11.9264 24.386 10.9525 24.3981C9.05564 24.3981 7.50513 25.6547 7.50513 27.195C7.50513 28.7354 9.05564 30.0001 10.9525 30.0001C12.8494 30.0001 14.4 28.7435 14.4 27.195V14.54L27.1752 9.76499V22.0228C26.466 21.3681 25.5253 21.0104 24.5525 21.0256C22.6556 21.0256 21.1134 22.2822 21.1134 23.8225C21.1134 25.3629 22.6556 26.6194 24.5525 26.6194C26.4494 26.6194 27.9999 25.3629 27.9999 23.8225V5.71149C28.003 5.02469 27.6642 4.37981 27.0927 3.9847Z" fill="#DBB580"/>
</svg>
