<svg width="23" height="28" viewBox="0 0 23 28" fill="none" xmlns="http://www.w3.org/2000/svg">
<path fill-rule="evenodd" clip-rule="evenodd" d="M0 1.4C0 0.626801 0.626495 0 1.39932 0H20.9897C21.7626 0 22.3891 0.626801 22.3891 1.4C22.3891 2.1732 21.7626 2.8 20.9897 2.8V3.60891C20.9897 5.82007 20.3356 7.98176 19.1096 9.82155L16.3254 14L19.1096 18.1784C20.3356 20.0182 20.9897 22.1799 20.9897 24.3911V25.2C21.7626 25.2 22.3891 25.8268 22.3891 26.6C22.3891 27.3732 21.7626 28 20.9897 28H1.39932C0.626495 28 0 27.3732 0 26.6C0 25.8268 0.626495 25.2 1.39932 25.2V24.3911C1.39932 22.1799 2.0535 20.0182 3.27943 18.1784L6.0637 14L3.27943 9.82155C2.0535 7.98176 1.39932 5.82007 1.39932 3.60891V2.8C0.626495 2.8 0 2.1732 0 1.4ZM4.19795 25.2H5.94708L8.22798 21.5488C9.59815 19.3554 12.7909 19.3554 14.1611 21.5488L16.442 25.2H18.1911V24.3911C18.1911 22.7327 17.7005 21.1115 16.781 19.7316L13.8947 15.4H8.49436L5.60804 19.7316C4.68859 21.1115 4.19795 22.7327 4.19795 24.3911V25.2ZM4.19795 2.8H18.1911V3.60891C18.1911 4.78194 17.9456 5.93641 17.4766 7H4.91251C4.44343 5.93641 4.19795 4.78194 4.19795 3.60891V2.8Z" fill="#FDFCEE"/>
</svg>
